<svg width="32" height="32" viewBox="0 0 32 32" fill="none" xmlns="http://www.w3.org/2000/svg">
<path d="M14.9727 17.7318C14.4204 18.6884 13.1972 19.0162 12.2406 18.4639L6.4671 15.1305C5.51052 14.5782 5.18277 13.3551 5.73505 12.3985L7.73505 8.93438C8.28734 7.9778 9.51052 7.65005 10.4671 8.20233L16.2406 11.5357C17.1972 12.0879 17.5249 13.3111 16.9727 14.2677L14.9727 17.7318Z" stroke="#111111" stroke-width="2" stroke-linecap="round" stroke-linejoin="round"/>
<path d="M24.2109 23.0658C23.6587 24.0224 22.4355 24.3501 21.4789 23.7979L15.7054 20.4645C14.7488 19.9122 14.421 18.6891 14.9733 17.7325L16.9733 14.2684C17.5256 13.3118 18.7488 12.984 19.7054 13.5363L22.5921 15.203L25.4789 16.8696C26.4355 17.4219 26.7632 18.6451 26.2109 19.6017L24.2109 23.0658Z" stroke="#111111" stroke-width="2" stroke-linecap="round" stroke-linejoin="round"/>
<path d="M13.2461 14.4258L18.6366 17.6771" stroke="#111111" stroke-width="2" stroke-linecap="round" stroke-linejoin="round"/>
</svg>
