<svg width="32" height="32" viewBox="0 0 32 32" fill="none" xmlns="http://www.w3.org/2000/svg">
<path d="M12.25 8.5H26" stroke="#111111" stroke-width="1.5" stroke-linecap="round" stroke-linejoin="round"/>
<path d="M7.25063 11V6L6.05078 6.72028" stroke="#111111" stroke-width="1.5" stroke-linecap="round" stroke-linejoin="round"/>
<path d="M8.5 18.5H6.75C6.33579 18.5 6 18.1642 6 17.75V16.75C6 16.3358 6.33579 16 6.75 16H7.75C8.16421 16 8.5 15.6642 8.5 15.25V14.25C8.5 13.8358 8.16421 13.5 7.75 13.5H6" stroke="#111111" stroke-width="1.5" stroke-linecap="round" stroke-linejoin="round"/>
<path d="M6 21H7.75C8.16421 21 8.5 21.3358 8.5 21.75V25.25C8.5 25.6642 8.16421 26 7.75 26H6" stroke="#111111" stroke-width="1.5" stroke-linecap="round" stroke-linejoin="round"/>
<path d="M8.5 23.5H6" stroke="#111111" stroke-width="1.5" stroke-linecap="round" stroke-linejoin="round"/>
<path d="M12.25 16H26" stroke="#111111" stroke-width="1.5" stroke-linecap="round" stroke-linejoin="round"/>
<path d="M12.25 23.5H26" stroke="#111111" stroke-width="1.5" stroke-linecap="round" stroke-linejoin="round"/>
</svg>
