<svg width="32" height="32" viewBox="0 0 32 32" fill="none" xmlns="http://www.w3.org/2000/svg">
<path d="M13.9912 16.2165H7.57275C6.86379 16.2165 6.28906 15.6418 6.28906 14.9328V10.4399C6.28906 9.73098 6.86379 9.15625 7.57275 9.15625H12.7075C13.4164 9.15625 13.9912 9.73098 13.9912 10.4399V16.2165ZM13.9912 16.2165C13.9912 19.4257 12.7075 21.3512 8.85643 23.2768" stroke="#111111" stroke-width="1.5" stroke-linecap="round"/>
<path d="M25.4951 16.2165H19.0767C18.3677 16.2165 17.793 15.6418 17.793 14.9328V10.4399C17.793 9.73098 18.3677 9.15625 19.0767 9.15625H24.2114C24.9204 9.15625 25.4951 9.73098 25.4951 10.4399V16.2165ZM25.4951 16.2165C25.4951 19.4257 24.2114 21.3512 20.3603 23.2768" stroke="#111111" stroke-width="1.5" stroke-linecap="round"/>
<rect x="6.66797" y="9" width="6.66667" height="6.66667" fill="#111111"/>
<rect x="18.668" y="9" width="6.66667" height="6.66667" fill="#111111"/>
</svg>
