<svg width="18" height="18" viewBox="0 0 18 18" fill="none" xmlns="http://www.w3.org/2000/svg">
<path d="M9 0L15.3003 2.69968L18 9L15.3003 15.3003L9 18L2.69968 15.3003L0 9L2.69968 2.69968L9 0Z" fill="#B9B9B9"/>
<mask id="mask0_1669_173856" style="mask-type:alpha" maskUnits="userSpaceOnUse" x="0" y="0" width="18" height="18">
<path d="M9 0L15.3003 2.69968L18 9L15.3003 15.3003L9 18L2.69968 15.3003L0 9L2.69968 2.69968L9 0Z" fill="#46ED89"/>
</mask>
<g mask="url(#mask0_1669_173856)">
<path opacity="0.25" d="M9.5 9L15.5 2.5L9 -0.5L2 2L-0.5 9H9.5Z" fill="white"/>
</g>
<path d="M9 4L10.4695 6.97746L13.7553 7.45492L11.3776 9.77254L11.9389 13.0451L9 11.5L6.06107 13.0451L6.62236 9.77254L4.24472 7.45492L7.53054 6.97746L9 4Z" fill="white"/>
</svg>
