<svg class="ai_svg" width="24" height="24" viewBox="0 0 24 24" fill="none" xmlns="http://www.w3.org/2000/svg">
<path d="M12 20.1652C17.1998 20.1652 21.5 16.3306 21.5 11.5006C21.5 6.67056 17.1998 2.836 12 2.836C6.80024 2.836 2.5 6.67056 2.5 11.5006C2.5 16.3306 6.80024 20.1652 12 20.1652Z" fill="#F3F4FF" stroke="#F3F4FF"/>
<path d="M17.9336 20.5557C18.5625 21.0828 19.504 20.5192 19.3782 19.6909L18.7828 15.7704C18.6873 15.1418 18.0078 14.8152 17.4678 15.1385L15.0861 16.5641C14.546 16.8874 14.4791 17.6608 14.9564 18.0608L17.9336 20.5557Z" fill="#F3F4FF" stroke="#F3F4FF"/>
<path d="M10.1572 6.46656C10.3125 6.20762 10.6878 6.20762 10.8432 6.46656L12.4212 9.09657C12.455 9.15286 12.5021 9.19998 12.5584 9.23376L15.1884 10.8118C15.4473 10.9671 15.4473 11.3424 15.1884 11.4978L12.5584 13.0758C12.5021 13.1095 12.455 13.1567 12.4212 13.213L10.8432 15.843C10.6878 16.1019 10.3125 16.1019 10.1572 15.843L8.57918 13.213C8.5454 13.1567 8.49828 13.1095 8.44198 13.0758L5.81198 11.4978C5.55304 11.3424 5.55304 10.9671 5.81198 10.8118L8.44198 9.23376C8.49828 9.19998 8.5454 9.15286 8.57918 9.09656L10.1572 6.46656Z" fill="#676DFF"/>
<path d="M15.5885 12.7168C15.6661 12.5873 15.8538 12.5873 15.9314 12.7168L16.6109 13.8492C16.6278 13.8773 16.6513 13.9009 16.6795 13.9178L17.8118 14.5972C17.9413 14.6749 17.9413 14.8625 17.8118 14.9402L16.6795 15.6196C16.6513 15.6365 16.6278 15.6601 16.6109 15.6882L15.9314 16.8206C15.8538 16.95 15.6661 16.95 15.5885 16.8206L14.909 15.6882C14.8921 15.6601 14.8686 15.6365 14.8404 15.6196L13.7081 14.9402C13.5786 14.8625 13.5786 14.6749 13.7081 14.5972L14.8404 13.9178C14.8686 13.9009 14.8921 13.8773 14.909 13.8492L15.5885 12.7168Z" fill="#FFE091"/>
</svg>
