<svg width="16" height="16" viewBox="0 0 16 16" fill="none" xmlns="http://www.w3.org/2000/svg">
<mask id="path-1-inside-1_3857_9832" fill="white">
<path d="M13.5583 6.10334C13.5583 6.23001 13.5117 6.35668 13.4117 6.45668L9.065 10.8033C8.35833 11.51 7.19833 11.51 6.49167 10.8033L2.145 6.45668C1.95167 6.26334 1.95167 5.94334 2.145 5.75001C2.33833 5.55668 2.65833 5.55668 2.85167 5.75001L7.19833 10.0967C7.51833 10.4167 8.03833 10.4167 8.35833 10.0967L12.705 5.75001C12.8983 5.55668 13.2183 5.55668 13.4117 5.75001C13.505 5.85001 13.5583 5.97668 13.5583 6.10334Z"/>
</mask>
<path d="M13.5583 6.10334C13.5583 6.23001 13.5117 6.35668 13.4117 6.45668L9.065 10.8033C8.35833 11.51 7.19833 11.51 6.49167 10.8033L2.145 6.45668C1.95167 6.26334 1.95167 5.94334 2.145 5.75001C2.33833 5.55668 2.65833 5.55668 2.85167 5.75001L7.19833 10.0967C7.51833 10.4167 8.03833 10.4167 8.35833 10.0967L12.705 5.75001C12.8983 5.55668 13.2183 5.55668 13.4117 5.75001C13.505 5.85001 13.5583 5.97668 13.5583 6.10334Z" fill="#233142"/>
<path d="M13.4117 6.45668L12.7046 5.74957L13.4117 6.45668ZM9.065 10.8033L9.77211 11.5105V11.5105L9.065 10.8033ZM6.49167 10.8033L5.78456 11.5105L5.78456 11.5105L6.49167 10.8033ZM2.145 6.45668L2.85211 5.74957H2.85211L2.145 6.45668ZM2.85167 5.75001L2.14456 6.45712H2.14456L2.85167 5.75001ZM7.19833 10.0967L7.90544 9.38957L7.19833 10.0967ZM8.35833 10.0967L9.06544 10.8038V10.8038L8.35833 10.0967ZM12.705 5.75001L11.9979 5.0429L12.705 5.75001ZM13.4117 5.75001L14.1427 5.06769L14.131 5.05509L14.1188 5.0429L13.4117 5.75001ZM12.5583 6.10334C12.5583 5.97911 12.6071 5.84699 12.7046 5.74957L14.1188 7.16378C14.4162 6.86636 14.5583 6.48091 14.5583 6.10334H12.5583ZM12.7046 5.74957L8.35789 10.0962L9.77211 11.5105L14.1188 7.16378L12.7046 5.74957ZM8.35789 10.0962C8.04175 10.4124 7.51492 10.4124 7.19877 10.0962L5.78456 11.5105C6.88175 12.6076 8.67492 12.6076 9.77211 11.5105L8.35789 10.0962ZM7.19877 10.0962L2.85211 5.74957L1.43789 7.16378L5.78456 11.5105L7.19877 10.0962ZM2.85211 5.74957C3.0493 5.94676 3.0493 6.25993 2.85211 6.45712L1.43789 5.0429C0.854036 5.62676 0.854036 6.57993 1.43789 7.16378L2.85211 5.74957ZM2.85211 6.45712C2.65492 6.65431 2.34175 6.65431 2.14456 6.45712L3.55877 5.0429C2.97492 4.45905 2.02175 4.45905 1.43789 5.0429L2.85211 6.45712ZM2.14456 6.45712L6.49123 10.8038L7.90544 9.38957L3.55877 5.0429L2.14456 6.45712ZM6.49123 10.8038C7.20175 11.5143 8.35492 11.5143 9.06544 10.8038L7.65123 9.38957C7.72175 9.31905 7.83492 9.31905 7.90544 9.38957L6.49123 10.8038ZM9.06544 10.8038L13.4121 6.45712L11.9979 5.0429L7.65123 9.38957L9.06544 10.8038ZM13.4121 6.45712C13.2149 6.65431 12.9018 6.65431 12.7046 6.45712L14.1188 5.0429C13.5349 4.45905 12.5817 4.45905 11.9979 5.0429L13.4121 6.45712ZM12.6806 6.43233C12.6205 6.3679 12.5583 6.25698 12.5583 6.10334H14.5583C14.5583 5.69637 14.3895 5.33212 14.1427 5.06769L12.6806 6.43233Z" fill="#233142" mask="url(#path-1-inside-1_3857_9832)"/>
</svg>
