<svg width="24" height="24" viewBox="0 0 24 24" fill="none" xmlns="http://www.w3.org/2000/svg">
<g clip-path="url(#clip0_3339_1249)">
<rect width="24" height="24" rx="12" fill="#E3E7EB"/>
<path fill-rule="evenodd" clip-rule="evenodd" d="M17.6929 6.19526C17.9482 6.45561 17.9482 6.87772 17.6929 7.13807L7.23185 17.8047C6.97652 18.0651 6.56255 18.0651 6.30722 17.8047C6.05189 17.5444 6.05189 17.1223 6.30722 16.8619L16.7682 6.19526C17.0236 5.93491 17.4375 5.93491 17.6929 6.19526Z" fill="#233142"/>
<path fill-rule="evenodd" clip-rule="evenodd" d="M6.30722 6.19526C6.56255 5.93491 6.97652 5.93491 7.23185 6.19526L17.6929 16.8619C17.9482 17.1223 17.9482 17.5444 17.6929 17.8047C17.4375 18.0651 17.0236 18.0651 16.7682 17.8047L6.30722 7.13807C6.05189 6.87772 6.05189 6.45561 6.30722 6.19526Z" fill="#233142"/>
</g>
<defs>
<clipPath id="clip0_3339_1249">
<rect width="24" height="24" rx="12" fill="white"/>
</clipPath>
</defs>
</svg>
