<svg class="check_svg" width="16" height="16" viewBox="0 0 16 16" fill="none" xmlns="http://www.w3.org/2000/svg">
<path fill-rule="evenodd" clip-rule="evenodd" d="M7.99998 13.6667C11.1296 13.6667 13.6666 11.1296 13.6666 8.00001C13.6666 4.8704 11.1296 2.33334 7.99998 2.33334C4.87037 2.33334 2.33331 4.8704 2.33331 8.00001C2.33331 11.1296 4.87037 13.6667 7.99998 13.6667ZM7.99998 14.6667C11.6819 14.6667 14.6666 11.6819 14.6666 8.00001C14.6666 4.31811 11.6819 1.33334 7.99998 1.33334C4.31808 1.33334 1.33331 4.31811 1.33331 8.00001C1.33331 11.6819 4.31808 14.6667 7.99998 14.6667Z" fill="#233142"/>
<path fill-rule="evenodd" clip-rule="evenodd" d="M11.3363 5.96338C11.5406 6.14913 11.5557 6.46535 11.37 6.66968L8.27177 10.0777C7.95172 10.4297 7.40234 10.4428 7.0659 10.1064L4.97976 8.02023C4.7845 7.82497 4.7845 7.50839 4.97976 7.31313C5.17502 7.11786 5.4916 7.11786 5.68687 7.31313L7.64941 9.27567L10.63 5.99701C10.8158 5.79268 11.132 5.77762 11.3363 5.96338Z" fill="#233142"/>
</svg>
