<svg width="20" height="20" viewBox="0 0 20 20" fill="none" xmlns="http://www.w3.org/2000/svg">
<g clip-path="url(#clip0_3857_9758)">
<path fill-rule="evenodd" clip-rule="evenodd" d="M10 17.0834C13.912 17.0834 17.0834 13.912 17.0834 10C17.0834 6.088 13.912 2.91669 10 2.91669C6.088 2.91669 2.91669 6.088 2.91669 10C2.91669 13.912 6.088 17.0834 10 17.0834ZM10 18.3334C14.6024 18.3334 18.3334 14.6024 18.3334 10C18.3334 5.39765 14.6024 1.66669 10 1.66669C5.39765 1.66669 1.66669 5.39765 1.66669 10C1.66669 14.6024 5.39765 18.3334 10 18.3334Z" fill="#233142"/>
<path fill-rule="evenodd" clip-rule="evenodd" d="M14.1704 7.45423C14.4259 7.68642 14.4447 8.0817 14.2125 8.33711L10.3398 12.5971C9.93969 13.0372 9.25297 13.0535 8.83242 12.633L6.22475 10.0253C5.98067 9.78122 5.98067 9.38549 6.22475 9.14142C6.46882 8.89734 6.86455 8.89734 7.10863 9.14142L9.56181 11.5946L13.2876 7.49627C13.5197 7.24086 13.915 7.22204 14.1704 7.45423Z" fill="#233142"/>
</g>
<defs>
<clipPath id="clip0_3857_9758">
<rect width="20" height="20" fill="white"/>
</clipPath>
</defs>
</svg>
