<svg class="comment_fill_svg" width="24" height="24" viewBox="0 0 24 24" fill="none" xmlns="http://www.w3.org/2000/svg">
<path fill-rule="evenodd" clip-rule="evenodd" d="M17.4407 16.713C18.8856 15.4496 19.7828 13.6842 19.7828 11.7308C19.7828 7.88929 16.3129 4.77515 12.0325 4.77515C7.75216 4.77515 4.28223 7.88929 4.28223 11.7308C4.28223 15.5723 7.75216 18.6864 12.0325 18.6864C13.3908 18.6864 14.6675 18.3728 15.7775 17.8219L17.0736 18.908C17.3531 19.1423 17.7716 18.8918 17.7157 18.5237L17.4407 16.713Z" fill="#676DFF"/>
<path fill-rule="evenodd" clip-rule="evenodd" d="M15.6747 17.729C14.5887 18.2838 13.3351 18.6002 12 18.6002C7.85786 18.6002 4.5 15.554 4.5 11.7964C4.5 8.03873 7.85786 4.99255 12 4.99255C16.1421 4.99255 19.5 8.03873 19.5 11.7964C19.5 13.6252 18.7046 15.2855 17.4106 16.5081L17.7157 18.517C17.7716 18.8851 17.3531 19.1356 17.0736 18.9013L15.6747 17.729ZM18.4746 16.8542C19.7283 15.5022 20.5 13.7382 20.5 11.7964C20.5 7.39701 16.6005 3.99255 12 3.99255C7.39947 3.99255 3.5 7.39701 3.5 11.7964C3.5 16.1958 7.39947 19.6002 12 19.6002C13.2513 19.6002 14.4434 19.3517 15.5184 18.9027L16.4313 19.6678C17.4958 20.5599 18.883 19.5435 18.7043 18.3668L18.4746 16.8542Z" fill="#676DFF"/>
</svg>
