<svg width="24" height="24" viewBox="0 0 24 24" fill="none" xmlns="http://www.w3.org/2000/svg">
<path fill-rule="evenodd" clip-rule="evenodd" d="M15.6747 17.7374C14.5887 18.2922 13.3351 18.6086 12 18.6086C7.85786 18.6086 4.5 15.5625 4.5 11.8048C4.5 8.04716 7.85786 5.00098 12 5.00098C16.1421 5.00098 19.5 8.04716 19.5 11.8048C19.5 13.6336 18.7046 15.2939 17.4106 16.5165L17.7157 18.5254C17.7716 18.8935 17.3531 19.144 17.0736 18.9097L15.6747 17.7374ZM18.4746 16.8627C19.7283 15.5107 20.5 13.7467 20.5 11.8048C20.5 7.40544 16.6005 4.00098 12 4.00098C7.39947 4.00098 3.5 7.40544 3.5 11.8048C3.5 16.2042 7.39947 19.6086 12 19.6086C13.2513 19.6086 14.4434 19.3601 15.5184 18.9111L16.4313 19.6762C17.4958 20.5683 18.883 19.5519 18.7043 18.3752L18.4746 16.8627Z" fill="#B2BBC6"/>
</svg>
