<svg class="edit_svg" width="24" height="24" viewBox="0 0 24 24" fill="none" xmlns="http://www.w3.org/2000/svg">
<path d="M19.5591 20H8.2688" stroke="#233142" stroke-width="1.5" stroke-linecap="round" stroke-linejoin="round"/>
<path d="M8.2688 20H3.75269C3.55306 20 3.36162 19.9207 3.22046 19.7795C3.07931 19.6384 3 19.4469 3 19.2473V15.0417C2.99966 14.944 3.0186 14.8471 3.05573 14.7567C3.09286 14.6663 3.14746 14.5841 3.2164 14.5148L14.5067 3.22455C14.5767 3.15343 14.6602 3.09695 14.7523 3.0584C14.8443 3.01985 14.9431 3 15.043 3C15.1428 3 15.2416 3.01985 15.3337 3.0584C15.4257 3.09695 15.5092 3.15343 15.5792 3.22455L19.7755 7.42076C19.8466 7.4908 19.9031 7.57428 19.9416 7.66635C19.9802 7.75842 20 7.85723 20 7.95705C20 8.05686 19.9802 8.15568 19.9416 8.24775C19.9031 8.33982 19.8466 8.4233 19.7755 8.49334L8.2688 20Z" stroke="#233142" stroke-width="1.5" stroke-linecap="round" stroke-linejoin="round"/>
<path d="M12.0322 5.69897L17.301 10.9678" stroke="#233142" stroke-width="1.5" stroke-linecap="round" stroke-linejoin="round"/>
</svg>
