<svg class="feedback2_svg" width="24" height="24" viewBox="0 0 24 24" fill="none" xmlns="http://www.w3.org/2000/svg">
<g>
<path d="M21.8492 5.47574V16.4757C21.8492 16.9134 21.6754 17.333 21.3659 17.6425C21.0565 17.9519 20.6368 18.1257 20.1992 18.1257H11.9492L7.54919 21.4257V18.1257H3.69919C3.26159 18.1257 2.8419 17.9519 2.53247 17.6425C2.22303 17.333 2.04919 16.9134 2.04919 16.4757V5.47574C2.04919 5.03814 2.22303 4.61845 2.53247 4.30902C2.8419 3.99958 3.26159 3.82574 3.69919 3.82574C3.69919 3.82574 12.3919 3.82574 17.4492 3.82574" stroke="#233142" stroke-width="1.5" stroke-linecap="round" stroke-linejoin="round"/>
<path d="M16.8781 9.87653C16.8781 9.87653 14.93 9.87653 14.5404 9.87653C14.1508 9.87653 14.1508 9.87653 14.1508 9.87653C14.1508 9.87653 14.1508 9.87653 14.1508 9.48691C14.1508 9.09728 14.1508 7.30988 14.1508 7.30988C14.1506 7.25929 14.1604 7.20916 14.1796 7.16236C14.1988 7.11556 14.2271 7.07301 14.2628 7.03714L20.1071 1.19277C20.1434 1.15596 20.1866 1.12673 20.2343 1.10677C20.2819 1.08681 20.3331 1.07654 20.3848 1.07654C20.4364 1.07654 20.4876 1.08681 20.5352 1.10677C20.5829 1.12673 20.6261 1.15596 20.6624 1.19277L22.8345 3.36493C22.8713 3.40119 22.9006 3.4444 22.9205 3.49206C22.9405 3.53972 22.9508 3.59087 22.9508 3.64254C22.9508 3.69421 22.9405 3.74536 22.9205 3.79302C22.9006 3.84068 22.8713 3.88389 22.8345 3.92015L16.8781 9.87653Z" stroke="#233142" stroke-width="1.5" stroke-linecap="round" stroke-linejoin="round"/>
<path d="M6.99915 8.77576H11.3991" stroke="#233142" stroke-width="1.5" stroke-linecap="round" stroke-linejoin="round"/>
<path d="M6.99915 13.1758H16.3491" stroke="#233142" stroke-width="1.5" stroke-linecap="round" stroke-linejoin="round"/>
</g>
</svg>
