<svg width="24" height="24" viewBox="0 0 24 24" fill="none" xmlns="http://www.w3.org/2000/svg">
<path fill-rule="evenodd" clip-rule="evenodd" d="M16.8396 5.64642C17.3366 5.64642 17.7396 6.04937 17.7396 6.54642V20.1642C17.7396 20.6613 17.3366 21.0642 16.8396 21.0642C16.3425 21.0642 15.9396 20.6613 15.9396 20.1642V6.54642C15.9396 6.04937 16.3425 5.64642 16.8396 5.64642Z" fill="#233142"/>
<path fill-rule="evenodd" clip-rule="evenodd" d="M12.1268 15.4302C12.4791 15.0796 13.0489 15.0809 13.3996 15.4332L16.8395 18.889L20.2794 15.4332C20.63 15.0809 21.1999 15.0796 21.5522 15.4302C21.9045 15.7809 21.9058 16.3507 21.5551 16.703L17.4773 20.7997C17.3084 20.9694 17.0789 21.0648 16.8395 21.0648C16.6001 21.0648 16.3705 20.9694 16.2016 20.7997L12.1238 16.703C11.7732 16.3507 11.7745 15.7809 12.1268 15.4302Z" fill="#233142"/>
<path fill-rule="evenodd" clip-rule="evenodd" d="M6.91111 2.93286C7.40816 2.93286 7.81111 3.33581 7.81111 3.83286V17.4506C7.81111 17.9477 7.40816 18.3506 6.91111 18.3506C6.41405 18.3506 6.01111 17.9477 6.01111 17.4506V3.83286C6.01111 3.33581 6.41405 2.93286 6.91111 2.93286Z" fill="#233142"/>
<path fill-rule="evenodd" clip-rule="evenodd" d="M6.91125 2.93231C7.15067 2.93231 7.38021 3.02771 7.54912 3.19739L11.6269 7.29405C11.9776 7.64634 11.9762 8.21618 11.624 8.56684C11.2717 8.9175 10.7018 8.91619 10.3512 8.5639L6.91125 5.10806L3.47134 8.5639C3.12068 8.91619 2.55083 8.9175 2.19855 8.56684C1.84626 8.21618 1.84495 7.64634 2.19561 7.29405L6.27339 3.19739C6.44229 3.02771 6.67183 2.93231 6.91125 2.93231Z" fill="#233142"/>
</svg>
