<svg class="heart_fill_svg" width="20" height="20" viewBox="0 0 20 20" fill="none" xmlns="http://www.w3.org/2000/svg">
<circle cx="10.0024" cy="9.99512" r="8.125" fill="#FFDDDB"/>
<path d="M10.0024 14.4702C9.78721 14.4702 9.57198 14.3874 9.40642 14.2384C9.02562 13.9073 8.67794 13.6093 8.36337 13.3444C7.41966 12.5331 6.59185 11.8543 6.01238 11.1589C5.33357 10.3311 5.00244 9.55296 5.00244 8.67548C5.00244 7.83111 5.30045 7.03641 5.83026 6.45694C6.37661 5.86091 7.1382 5.52979 7.94946 5.52979C8.56204 5.52979 9.14151 5.72846 9.6382 6.10926C9.77065 6.20859 9.88655 6.30793 10.0024 6.44038C10.1183 6.32449 10.2342 6.20859 10.3667 6.10926C10.8634 5.72846 11.4263 5.52979 12.0554 5.52979C12.8832 5.52979 13.6283 5.86091 14.1746 6.45694C14.721 7.03641 15.0024 7.83111 15.0024 8.67548C15.0024 9.55296 14.6879 10.3311 13.9925 11.1589C13.413 11.8543 12.5852 12.5497 11.6415 13.3444C11.3269 13.6093 10.9627 13.9238 10.5819 14.2384C10.4329 14.3874 10.2177 14.4702 10.0024 14.4702Z" fill="#F1351C"/>
</svg>
