<svg width="24" height="24" viewBox="0 0 24 24" fill="none" xmlns="http://www.w3.org/2000/svg">
<path d="M10.4966 3.03328C11.3211 2.18894 12.679 2.18894 13.5034 3.03328L14.427 3.97914C14.8285 4.3903 15.3809 4.61909 15.9555 4.61224L17.2774 4.5965C18.4574 4.58244 19.4176 5.54264 19.4036 6.72266L19.3878 8.04456C19.381 8.61918 19.6098 9.17153 20.0209 9.57301L20.9668 10.4966C21.8111 11.3211 21.8111 12.679 20.9668 13.5034L20.0209 14.427C19.6098 14.8285 19.381 15.3809 19.3878 15.9555L19.4036 17.2774C19.4176 18.4574 18.4574 19.4176 17.2774 19.4036L15.9555 19.3878C15.3809 19.381 14.8285 19.6098 14.427 20.0209L13.5034 20.9668C12.679 21.8111 11.3211 21.8111 10.4966 20.9668L9.57301 20.0209C9.17153 19.6098 8.61918 19.381 8.04456 19.3878L6.72266 19.4036C5.54264 19.4176 4.58244 18.4574 4.5965 17.2774L4.61224 15.9555C4.61909 15.3809 4.3903 14.8285 3.97914 14.427L3.03328 13.5034C2.18894 12.679 2.18894 11.3211 3.03328 10.4966L3.97914 9.57301C4.3903 9.17153 4.61909 8.61918 4.61224 8.04456L4.5965 6.72266C4.58244 5.54264 5.54264 4.58244 6.72266 4.5965L8.04456 4.61224C8.61918 4.61909 9.17153 4.3903 9.57301 3.97914L10.4966 3.03328Z" fill="#676DFF"/>
<path d="M10.4966 3.03328C11.3211 2.18894 12.679 2.18894 13.5034 3.03328L14.427 3.97914C14.8285 4.3903 15.3809 4.61909 15.9555 4.61224L17.2774 4.5965C18.4574 4.58244 19.4176 5.54264 19.4036 6.72266L19.3878 8.04456C19.381 8.61918 19.6098 9.17153 20.0209 9.57301L20.9668 10.4966C21.8111 11.3211 21.8111 12.679 20.9668 13.5034L20.0209 14.427C19.6098 14.8285 19.381 15.3809 19.3878 15.9555L19.4036 17.2774C19.4176 18.4574 18.4574 19.4176 17.2774 19.4036L15.9555 19.3878C15.3809 19.381 14.8285 19.6098 14.427 20.0209L13.5034 20.9668C12.679 21.8111 11.3211 21.8111 10.4966 20.9668L9.57301 20.0209C9.17153 19.6098 8.61918 19.381 8.04456 19.3878L6.72266 19.4036C5.54264 19.4176 4.58244 18.4574 4.5965 17.2774L4.61224 15.9555C4.61909 15.3809 4.3903 14.8285 3.97914 14.427L3.03328 13.5034C2.18894 12.679 2.18894 11.3211 3.03328 10.4966L3.97914 9.57301C4.3903 9.17153 4.61909 8.61918 4.61224 8.04456L4.5965 6.72266C4.58244 5.54264 5.54264 4.58244 6.72266 4.5965L8.04456 4.61224C8.61918 4.61909 9.17153 4.3903 9.57301 3.97914L10.4966 3.03328Z" stroke="url(#paint0_linear_3514_6115)"/>
<path d="M16.6437 10.4625H17.3889L16.4474 13.7278H15.7102L15.1253 11.6805L14.5403 13.7278H13.8031L12.8616 10.4625H13.6428L14.2038 12.598L14.7647 10.4625H15.5219L16.0788 12.59L16.6437 10.4625Z" fill="white"/>
<path d="M10.1478 13.7278V10.4625H12.5758V11.0956H10.877V11.7606H12.4355V12.3937H10.877V13.0948H12.6118V13.7278H10.1478Z" fill="white"/>
<path d="M6.61108 13.7278V10.4625H7.22007L8.85072 12.4257V10.4224H9.57991V13.6877H8.97092L7.34027 11.7245V13.7278H6.61108Z" fill="white"/>
<defs>
<linearGradient id="paint0_linear_3514_6115" x1="12" y1="3.02953" x2="12" y2="23.1738" gradientUnits="userSpaceOnUse">
<stop stop-color="white" stop-opacity="0.8"/>
<stop offset="1" stop-color="white" stop-opacity="0.2"/>
</linearGradient>
</defs>
</svg>
