<svg width="24" height="24" viewBox="0 0 24 24" fill="none" xmlns="http://www.w3.org/2000/svg">
<path d="M10.4966 3.03328C11.3211 2.18894 12.679 2.18894 13.5034 3.03328L14.427 3.97914C14.8285 4.3903 15.3809 4.61909 15.9555 4.61224L17.2774 4.5965C18.4574 4.58244 19.4176 5.54264 19.4036 6.72266L19.3878 8.04456C19.381 8.61918 19.6098 9.17153 20.0209 9.57301L20.9668 10.4966C21.8111 11.3211 21.8111 12.679 20.9668 13.5034L20.0209 14.427C19.6098 14.8285 19.381 15.3809 19.3878 15.9555L19.4036 17.2774C19.4176 18.4574 18.4574 19.4176 17.2774 19.4036L15.9555 19.3878C15.3809 19.381 14.8285 19.6098 14.427 20.0209L13.5034 20.9668C12.679 21.8111 11.3211 21.8111 10.4966 20.9668L9.57301 20.0209C9.17153 19.6098 8.61918 19.381 8.04456 19.3878L6.72266 19.4036C5.54264 19.4176 4.58244 18.4574 4.5965 17.2774L4.61224 15.9555C4.61909 15.3809 4.3903 14.8285 3.97914 14.427L3.03328 13.5034C2.18894 12.679 2.18894 11.3211 3.03328 10.4966L3.97914 9.57301C4.3903 9.17153 4.61909 8.61918 4.61224 8.04456L4.5965 6.72266C4.58244 5.54264 5.54264 4.58244 6.72266 4.5965L8.04456 4.61224C8.61918 4.61909 9.17153 4.3903 9.57301 3.97914L10.4966 3.03328Z" fill="#FFC52F"/>
<path d="M18.4585 10.4546V11.0996H17.3967V13.7199H16.6676V11.0996H15.6058V10.4546H18.4585Z" fill="white"/>
<path d="M14.0908 10.3745C14.82 10.3745 15.3648 10.8192 15.4009 11.4402H14.6477C14.6036 11.1557 14.3913 10.9834 14.0427 10.9834C13.7021 10.9834 13.5138 11.1197 13.5138 11.316C13.5138 11.5604 13.7662 11.6445 14.4033 11.7767C15.1565 11.933 15.4129 12.3056 15.4129 12.7944C15.4129 13.4194 14.824 13.8 14.0948 13.8C13.2895 13.8 12.7005 13.3633 12.6685 12.6662H13.4177C13.4577 12.9787 13.7302 13.187 14.1469 13.187C14.4433 13.187 14.6637 13.0388 14.6637 12.8264C14.6637 12.566 14.4433 12.4618 13.8624 12.3537C13.1532 12.2215 12.7686 11.929 12.7686 11.316C12.7686 10.727 13.3536 10.3745 14.0908 10.3745Z" fill="white"/>
<path d="M9.87463 13.7199V10.4546H12.3026V11.0876H10.6038V11.7527H12.1624V12.3857H10.6038V13.0869H12.3386V13.7199H9.87463Z" fill="white"/>
<path d="M6.74866 13.7199V10.4546H8.16696C8.89214 10.4546 9.30081 10.8312 9.30081 11.4282C9.30081 11.6605 9.14455 11.925 8.92019 12.0091C9.2327 12.1093 9.45305 12.4138 9.45305 12.7303C9.45305 13.3353 9.02035 13.7199 8.28716 13.7199H6.74866ZM7.47784 11.7767H8.13491C8.41136 11.7767 8.57162 11.6565 8.57162 11.4282C8.57162 11.1998 8.41136 11.0756 8.13491 11.0756H7.47784V11.7767ZM7.47784 13.0989H8.25511C8.54358 13.0989 8.72387 12.9707 8.72387 12.7303C8.72387 12.4899 8.54358 12.3617 8.25511 12.3617H7.47784V13.0989Z" fill="white"/>
</svg>
