<svg class="level_gold_svg" width="24" height="24" viewBox="0 0 24 24" fill="none" xmlns="http://www.w3.org/2000/svg">
<path d="M12 3.10114L18.2295 5.77048L20.8988 12L18.2295 18.2296L12 20.8989L5.77042 18.2296L3.10107 12L5.77042 5.77048L12 3.10114Z" fill="#FFC52F"/>
<mask id="mask0_3514_5930" style="mask-type:alpha" maskUnits="userSpaceOnUse" x="3" y="3" width="18" height="18">
<path d="M12 3.10114L18.2295 5.77048L20.8988 12L18.2295 18.2296L12 20.8989L5.77042 18.2296L3.10107 12L5.77042 5.77048L12 3.10114Z" fill="#EDBE46"/>
</mask>
<g mask="url(#mask0_3514_5930)">
<path opacity="0.25" d="M12.4943 12L18.4269 5.57305L12 2.60675L5.0786 5.07866L2.60669 12H12.4943Z" fill="white"/>
</g>
<path d="M11.7608 7.54074C11.8586 7.34254 12.1412 7.34254 12.239 7.54074L13.3908 9.8745C13.4296 9.9532 13.5047 10.0078 13.5916 10.0204L16.167 10.3946C16.3858 10.4264 16.4731 10.6952 16.3148 10.8495L14.4512 12.666C14.3884 12.7273 14.3597 12.8156 14.3745 12.9021L14.8145 15.4671C14.8518 15.685 14.6232 15.8511 14.4275 15.7482L12.124 14.5372C12.0463 14.4963 11.9535 14.4963 11.8758 14.5372L9.57224 15.7482C9.3766 15.8511 9.14795 15.685 9.18532 15.4671L9.62526 12.9021C9.64009 12.8156 9.61141 12.7273 9.54856 12.666L7.68495 10.8495C7.52668 10.6952 7.61401 10.4264 7.83274 10.3946L10.4082 10.0204C10.495 10.0078 10.5701 9.9532 10.609 9.8745L11.7608 7.54074Z" fill="white"/>
</svg>
