<svg width="24" height="24" viewBox="0 0 24 24" fill="none" xmlns="http://www.w3.org/2000/svg">
<path d="M12 21.4404C11.5695 21.4404 11.1391 21.2749 10.8079 20.9768C10.0464 20.3146 9.35099 19.7186 8.72186 19.1888C6.83444 17.5663 5.17881 16.2086 4.01987 14.8179C2.66225 13.1623 2 11.606 2 9.85102C2 8.16228 2.59603 6.57288 3.65563 5.41394C4.74834 4.22188 6.27152 3.55963 7.89404 3.55963C9.11921 3.55963 10.2781 3.95698 11.2715 4.71857C11.5364 4.91725 11.7682 5.11592 12 5.38082C12.2318 5.14903 12.4636 4.91725 12.7285 4.71857C13.7219 3.95698 14.8477 3.55963 16.106 3.55963C17.7616 3.55963 19.2517 4.22188 20.3444 5.41394C21.4371 6.57288 22 8.16228 22 9.85102C22 11.606 21.3709 13.1623 19.9801 14.8179C18.8212 16.2086 17.1656 17.5994 15.2781 19.1888C14.649 19.7186 13.9205 20.3477 13.1589 20.9768C12.8609 21.2749 12.4305 21.4404 12 21.4404Z" fill="white"/>
</svg>
