<svg class="like_svg" width="24" height="24" viewBox="0 0 24 24" fill="none" xmlns="http://www.w3.org/2000/svg">
<path d="M10.9334 20.8375L10.931 20.8354C10.1691 20.1728 9.47318 19.5763 8.84332 19.0459C8.603 18.8393 8.3668 18.6373 8.13521 18.4393C6.54114 17.076 5.16499 15.899 4.16439 14.6984C2.82621 13.0664 2.1875 11.5509 2.1875 9.85102C2.1875 8.20567 2.76825 6.66243 3.79393 5.54054C4.85064 4.38782 6.32341 3.74713 7.89404 3.74713C9.07705 3.74713 10.1961 4.13032 11.1574 4.86737L11.1574 4.86738L11.159 4.86857C11.4171 5.06216 11.6383 5.25213 11.8589 5.50429L11.9909 5.65512L12.1326 5.51341C12.3659 5.2801 12.5885 5.05794 12.841 4.86857L12.841 4.86858L12.8426 4.86737C13.8044 4.12996 14.8904 3.74713 16.106 3.74713C17.7092 3.74713 19.149 4.38742 20.2062 5.54063L20.2061 5.54065L20.2079 5.54256C21.2633 6.66192 21.8125 8.20309 21.8125 9.85102C21.8125 11.5527 21.2055 13.0677 19.8366 14.6973L19.8361 14.6979C18.6974 16.0643 17.0701 17.4346 15.1936 19.0148L15.1574 19.0453C14.9386 19.2296 14.7086 19.4252 14.4698 19.6282C14.0191 20.0114 13.537 20.4213 13.0395 20.8323L13.0327 20.838L13.0264 20.8443C12.7665 21.1041 12.3851 21.2529 12 21.2529C11.6168 21.2529 11.2308 21.1051 10.9334 20.8375ZM4.58008 6.27735L4.57997 6.27726L4.57509 6.28274C3.746 7.21548 3.30257 8.4868 3.30257 9.85102C3.30257 11.2636 3.85576 12.5959 5.00137 13.9773L5.00136 13.9773L5.00256 13.9788C6.10325 15.2796 7.69855 16.6428 9.50747 18.1886L9.52719 18.2055L9.52823 18.2064C10.1562 18.7352 10.8837 19.3635 11.6452 20.0256L11.6449 20.026L11.6557 20.0341C11.8548 20.1835 12.1452 20.1835 12.3443 20.0341L12.3446 20.0345L12.3548 20.0256C12.6758 19.7465 12.994 19.4766 13.3022 19.2152C13.7172 18.8631 14.114 18.5266 14.4745 18.204C14.63 18.0707 14.7838 17.9392 14.9357 17.8093C16.5878 16.3961 18.0168 15.1739 18.9989 13.977C20.1443 12.5956 20.6974 11.2634 20.6974 9.85102C20.6974 8.48406 20.2191 7.2121 19.3894 6.31325L19.3892 6.31304C18.5267 5.38151 17.3514 4.8622 16.106 4.8622C15.1681 4.8622 14.3023 5.17537 13.5453 5.72587L13.5453 5.72579L13.5405 5.72951C13.2303 5.97076 12.957 6.24465 12.6877 6.54764L12.6877 6.54762L12.6855 6.55019C12.5164 6.74746 12.2677 6.88206 12 6.88206C11.7297 6.88206 11.5142 6.77836 11.3133 6.54874L11.3123 6.54764C11.043 6.24465 10.7697 5.97076 10.4595 5.72951L10.4595 5.7295L10.458 5.72837C9.7311 5.17454 8.86363 4.8622 7.89404 4.8622C6.61672 4.8622 5.44244 5.3805 4.58008 6.27735Z" fill="#233142" stroke="#233142" stroke-width="0.375"/>
</svg>
