<svg width="24" height="24" viewBox="0 0 24 24" fill="none" xmlns="http://www.w3.org/2000/svg">
<path d="M11.4782 12.866C10.9259 13.8226 9.70274 14.1504 8.74616 13.5981L5.28206 11.5981C4.32547 11.0458 3.99772 9.82262 4.55001 8.86603L5.55001 7.13398C6.10229 6.1774 7.32547 5.84965 8.28206 6.40193L11.7462 8.40193C12.7027 8.95422 13.0305 10.1774 12.4782 11.134L11.4782 12.866Z" stroke="#233142" stroke-width="2" stroke-linecap="round" stroke-linejoin="round"/>
<path d="M18.4064 16.866C17.8541 17.8226 16.631 18.1504 15.6744 17.5981L12.2103 15.5981C11.2537 15.0458 10.9259 13.8226 11.4782 12.866L12.4782 11.134C13.0305 10.1774 14.2537 9.84965 15.2103 10.4019L16.9423 11.4019L18.6744 12.4019C19.631 12.9542 19.9587 14.1774 19.4064 15.134L18.4064 16.866Z" stroke="#233142" stroke-width="2" stroke-linecap="round" stroke-linejoin="round"/>
<path d="M9.93335 10.8194L13.9762 13.2579" stroke="#233142" stroke-width="2" stroke-linecap="round" stroke-linejoin="round"/>
</svg>
