<svg width="24" height="24" viewBox="0 0 24 24" fill="none" xmlns="http://www.w3.org/2000/svg">
<path d="M3.08959 19.5815L3.79674 19.8314H3.79674L3.08959 19.5815ZM4.23803 20.7299L3.98815 20.0228H3.98815L4.23803 20.7299ZM6.93135 19.7782L7.18123 20.4854L6.93135 19.7782ZM4.02265 16.1707L3.3583 16.5188L4.02265 16.1707ZM3.75 12C3.75 7.44365 7.44365 3.75 12 3.75V2.25C6.61522 2.25 2.25 6.61522 2.25 12H3.75ZM4.687 15.8227C4.08873 14.6807 3.75 13.381 3.75 12H2.25C2.25 13.6292 2.6502 15.1672 3.3583 16.5188L4.687 15.8227ZM3.79674 19.8314L4.78065 17.0469L3.36635 16.5472L2.38244 19.3316L3.79674 19.8314ZM3.98815 20.0228C3.86926 20.0648 3.75473 19.9503 3.79674 19.8314L2.38244 19.3316C1.92032 20.6394 3.18009 21.8992 4.4879 21.4371L3.98815 20.0228ZM6.68147 19.0711L3.98815 20.0228L4.4879 21.4371L7.18123 20.4854L6.68147 19.0711ZM12 20.25C10.5261 20.25 9.14453 19.8641 7.94851 19.1885L7.21071 20.4945C8.62595 21.294 10.2609 21.75 12 21.75V20.25ZM20.25 12C20.25 16.5563 16.5563 20.25 12 20.25V21.75C17.3848 21.75 21.75 17.3848 21.75 12H20.25ZM12 3.75C16.5563 3.75 20.25 7.44365 20.25 12H21.75C21.75 6.61522 17.3848 2.25 12 2.25V3.75ZM7.18123 20.4854C7.17943 20.486 7.18029 20.4851 7.18534 20.4856C7.19088 20.4862 7.19999 20.4884 7.21071 20.4945L7.94851 19.1885C7.5761 18.9781 7.11503 18.9179 6.68147 19.0711L7.18123 20.4854ZM3.3583 16.5188C3.36378 16.5292 3.36569 16.538 3.36614 16.5432C3.36656 16.5481 3.36573 16.5489 3.36635 16.5472L4.78065 17.0469C4.92795 16.6301 4.87795 16.1872 4.687 15.8227L3.3583 16.5188Z" fill="#233142"/>
<circle cx="7.54492" cy="12.0448" r="1.125" fill="#233142"/>
<circle cx="12.0449" cy="12.0448" r="1.125" fill="#233142"/>
<circle cx="16.5449" cy="12.0448" r="1.125" fill="#233142"/>
</svg>
