<svg width="24" height="24" viewBox="0 0 24 24" fill="none" xmlns="http://www.w3.org/2000/svg">
<path fill-rule="evenodd" clip-rule="evenodd" d="M17.5777 2.55598C17.7982 2.2053 18.2611 2.09971 18.6118 2.32015C18.9625 2.5406 19.0681 3.00358 18.8476 3.35427L17.6897 5.19637C17.7026 5.21082 17.715 5.22578 17.7267 5.24122L17.7275 5.24117L17.7347 5.25185C17.7485 5.27068 17.7614 5.29019 17.7734 5.31032C18.3807 6.23845 18.7301 7.32353 18.7301 8.48156L18.7301 11.1307C18.7301 11.5616 18.9501 12.2949 19.1901 12.6616L20.3401 14.4124C20.8001 15.1091 20.9001 15.8882 20.6101 16.5941C20.3301 17.2999 19.6901 17.8407 18.8501 18.1066C17.2725 18.5908 15.6338 18.9022 13.9776 19.0407C13.9923 19.1154 14 19.2029 14 19.305C14 20.4095 13.1045 21.305 12 21.305C10.8954 21.305 9.99997 20.4095 9.99997 19.305C9.99997 19.2044 10.0074 19.1179 10.0217 19.044C9.77242 19.0235 9.52353 18.9991 9.27521 18.9708L9.26287 18.9635C9.19492 18.9548 9.13009 18.9361 9.0699 18.909L7.39891 21.5673C7.17847 21.9179 6.71548 22.0235 6.3648 21.8031C6.01412 21.5826 5.90853 21.1197 6.12897 20.769L17.5777 2.55598ZM9.85842 17.6546C12.7083 17.9342 15.5943 17.6479 18.3701 16.7957C18.7801 16.6674 19.0801 16.4291 19.2001 16.1174C19.3301 15.8149 19.2701 15.4574 19.0501 15.1182L17.9001 13.3674C17.5301 12.7899 17.2301 11.7999 17.2301 11.1307L17.2301 8.48156C17.2301 7.81207 17.0804 7.17456 16.8103 6.59538L9.85842 17.6546ZM13.7671 3.95625L13.773 3.94616C13.8197 3.95478 13.8678 3.95929 13.917 3.95929C14.3523 3.95929 14.7051 3.60642 14.7051 3.17114C14.7051 2.83463 14.4943 2.54738 14.1974 2.43434C13.6942 1.78666 12.8763 1.38678 11.9699 1.38678C10.9414 1.38678 10.0269 1.8941 9.55674 2.70681C7.02918 3.60192 5.2301 5.85396 5.2301 8.48155L5.2301 11.1307C5.2301 11.5524 5.0101 12.2949 4.7701 12.6707L3.6301 14.4124C3.2001 15.0724 3.1201 15.8699 3.4101 16.5941C3.7001 17.3182 4.3301 17.8682 5.1201 18.1066C5.23418 18.1417 5.34861 18.176 5.46338 18.2093C5.5466 18.2443 5.638 18.2635 5.7339 18.2635C6.1205 18.2635 6.4339 17.9501 6.4339 17.5635C6.4339 17.208 6.16876 16.9143 5.8254 16.8695C5.74354 16.8454 5.66177 16.8208 5.5801 16.7957C5.2201 16.6857 4.9401 16.4382 4.8101 16.1082C4.6801 15.7782 4.7101 15.4207 4.9101 15.1182L6.0601 13.3674C6.4401 12.7716 6.7301 11.7907 6.7301 11.1216L6.7301 8.48155C6.7301 6.05085 8.69487 4.04168 11.2483 3.71541C11.7682 3.65949 12.2765 3.66212 12.7687 3.72327C13.1135 3.77112 13.4475 3.84983 13.7671 3.95625Z" fill="#233142"/>
</svg>
