<svg class="noti_svg" width="24" height="24" viewBox="0 0 24 24" fill="none" xmlns="http://www.w3.org/2000/svg">
<path fill-rule="evenodd" clip-rule="evenodd" d="M13.917 3.95685C13.917 2.85228 13.0215 1.95685 11.917 1.95685C10.8124 1.95685 9.91696 2.85228 9.91696 3.95685C9.91696 4.06111 9.92494 4.15015 9.94032 4.2259C7.19699 5.01207 5.1987 7.36418 5.1987 10.1334V12.7826C5.1987 13.2134 4.9787 13.9468 4.7387 14.3134L3.5887 16.0643C3.1287 16.7609 3.0287 17.5401 3.3187 18.2459C3.5987 18.9518 4.2387 19.4926 5.0787 19.7584C6.49221 20.1923 7.95482 20.4874 9.43511 20.6438C9.89088 21.4954 10.8305 22.0431 11.8913 22.0431C12.9477 22.0431 13.8839 21.5079 14.3418 20.6562C15.8623 20.5033 17.3635 20.204 18.8087 19.7584C19.5987 19.5201 20.2287 18.9701 20.5187 18.2459C20.8087 17.5218 20.7287 16.7243 20.2987 16.0643L19.1587 14.3226C18.9187 13.9468 18.6987 13.2043 18.6987 12.7826V10.1334C18.6987 7.34396 16.6711 4.97774 13.8969 4.20894C13.9101 4.13694 13.917 4.05343 13.917 3.95685ZM11.9487 5.32093C9.0587 5.32093 6.6987 7.4751 6.6987 10.1334V12.7826C6.6987 13.4518 6.3987 14.4418 6.0287 15.0193L4.8787 16.7701C4.6587 17.1093 4.5987 17.4668 4.7287 17.7693C4.8487 18.0809 5.1487 18.3193 5.5587 18.4476C9.7387 19.7309 14.1687 19.7309 18.3487 18.4476C18.7087 18.3376 18.9887 18.0901 19.1187 17.7601C19.2487 17.4301 19.2187 17.0726 19.0187 16.7701L17.8687 15.0193C17.4887 14.4234 17.1987 13.4426 17.1987 12.7734V10.1334C17.1987 7.4751 14.8487 5.32093 11.9487 5.32093Z" fill="#233142"/>
</svg>
