<svg width="24" height="24" viewBox="0 0 24 24" fill="none" xmlns="http://www.w3.org/2000/svg">
<path fill-rule="evenodd" clip-rule="evenodd" d="M11.9977 5.72729C9.14837 5.72729 6.83857 8.0371 6.83857 10.8864V16.3729C6.83857 16.6406 6.69586 16.888 6.46411 17.0221C5.80952 17.4007 5.31864 18.0275 5.11873 18.7727H18.8766C18.6767 18.0275 18.1858 17.4007 17.5312 17.0221C17.2995 16.888 17.1567 16.6406 17.1567 16.3729V10.8864C17.1567 8.0371 14.8469 5.72729 11.9977 5.72729ZM5.33857 10.8864C5.33857 7.20867 8.31994 4.22729 11.9977 4.22729C15.6754 4.22729 18.6567 7.20867 18.6567 10.8864V15.9665C19.7571 16.7625 20.4749 18.0584 20.4749 19.5227C20.4749 19.937 20.1391 20.2728 19.7249 20.2728H4.27039C3.85617 20.2728 3.52039 19.937 3.52039 19.5227C3.52039 18.0584 4.23823 16.7625 5.33857 15.9665V10.8864Z" fill="#233142"/>
<path fill-rule="evenodd" clip-rule="evenodd" d="M12.1567 4.97729C11.7425 4.97729 11.4067 4.64151 11.4067 4.22729V3.00002C11.4067 2.58581 11.7425 2.25002 12.1567 2.25002C12.571 2.25002 12.9067 2.58581 12.9067 3.00002V4.22729C12.9067 4.64151 12.571 4.97729 12.1567 4.97729Z" fill="#233142"/>
<path fill-rule="evenodd" clip-rule="evenodd" d="M8.52039 19.5227C8.52039 19.1085 8.85617 18.7727 9.27039 18.7727H14.7249C15.1391 18.7727 15.4749 19.1085 15.4749 19.5227C15.4749 21.4432 13.9181 23 11.9977 23C10.0772 23 8.52039 21.4432 8.52039 19.5227ZM10.1676 20.2727C10.463 20.9928 11.1711 21.5 11.9977 21.5C12.8242 21.5 13.5323 20.9928 13.8277 20.2727H10.1676Z" fill="#233142"/>
</svg>
