<svg width="24" height="24" viewBox="0 0 24 24" fill="none" xmlns="http://www.w3.org/2000/svg">
<g clip-path="url(#clip0_436_936)">
<path fill-rule="evenodd" clip-rule="evenodd" d="M12 20.5C16.6944 20.5 20.5 16.6944 20.5 12C20.5 7.30558 16.6944 3.5 12 3.5C7.30558 3.5 3.5 7.30558 3.5 12C3.5 16.6944 7.30558 20.5 12 20.5ZM12 22C17.5228 22 22 17.5228 22 12C22 6.47715 17.5228 2 12 2C6.47715 2 2 6.47715 2 12C2 17.5228 6.47715 22 12 22Z" fill="#233142"/>
<path fill-rule="evenodd" clip-rule="evenodd" d="M10.7944 8.21663C10.5417 8.43103 10.35 8.76079 10.35 9.27394C10.35 9.74338 9.96947 10.1239 9.50002 10.1239C9.03058 10.1239 8.65002 9.74338 8.65002 9.27394C8.65002 8.27114 9.05389 7.46394 9.69453 6.92037C10.3167 6.39248 11.1159 6.15002 11.8822 6.15002C12.6485 6.15003 13.4477 6.39249 14.0699 6.92038C14.7105 7.46394 15.1144 8.27115 15.1144 9.27394C15.1144 10.477 14.3146 11.4256 13.711 11.9868C13.3961 12.2796 13.0846 12.513 12.85 12.6747L12.85 14C12.85 14.4695 12.4694 14.85 12 14.85C11.5306 14.85 11.15 14.4695 11.15 14L11.15 12.2104C11.15 11.904 11.3149 11.6206 11.5814 11.4698C11.5816 11.4697 11.5821 11.4694 11.5828 11.469L11.5948 11.462C11.6067 11.455 11.626 11.4435 11.6517 11.4277C11.7033 11.3959 11.78 11.3472 11.8733 11.2832C12.0615 11.1542 12.3093 10.9688 12.5534 10.7418C13.082 10.2503 13.4144 9.73115 13.4144 9.27394C13.4144 8.76079 13.2227 8.43104 12.97 8.21664C12.6989 7.98656 12.307 7.85003 11.8822 7.85002C11.4574 7.85002 11.0656 7.98655 10.7944 8.21663Z" fill="#233142"/>
<rect x="11" y="16" width="2" height="2" rx="1" fill="#233142"/>
</g>
<defs>
<clipPath id="clip0_436_936">
<rect width="24" height="24" fill="white"/>
</clipPath>
</defs>
</svg>
