<svg class="question_grey_svg" width="24" height="24" viewBox="0 0 24 24" fill="none" xmlns="http://www.w3.org/2000/svg">
<g>
<path fill-rule="evenodd" clip-rule="evenodd" d="M12.0039 22.001C17.5268 22.001 22.0039 17.5238 22.0039 12.001C22.0039 6.47813 17.5268 2.00098 12.0039 2.00098C6.48106 2.00098 2.00391 6.47813 2.00391 12.001C2.00391 17.5238 6.48106 22.001 12.0039 22.001Z" fill="#B2BBC6"/>
<path fill-rule="evenodd" clip-rule="evenodd" d="M10.7928 8.21602C10.5401 8.43042 10.3484 8.76018 10.3484 9.27333C10.3484 9.74277 9.96788 10.1233 9.49844 10.1233C9.029 10.1233 8.64844 9.74277 8.64844 9.27333C8.64844 8.27053 9.05231 7.46333 9.69294 6.91976C10.3151 6.39187 11.1143 6.14941 11.8806 6.14941C12.6469 6.14942 13.4462 6.39188 14.0683 6.91977C14.7089 7.46333 15.1128 8.27054 15.1128 9.27333C15.1128 10.4764 14.313 11.425 13.7094 11.9862C13.3945 12.279 13.0831 12.5124 12.8484 12.6741L12.8484 13.9994C12.8484 14.4689 12.4678 14.8494 11.9984 14.8494C11.529 14.8494 11.1484 14.4689 11.1484 13.9994L11.1484 12.2098C11.1484 11.9034 11.3133 11.62 11.5798 11.4692C11.58 11.469 11.5805 11.4688 11.5812 11.4684L11.5932 11.4614C11.6051 11.4544 11.6244 11.4429 11.6501 11.427C11.7017 11.3953 11.7784 11.3466 11.8717 11.2826C12.0599 11.1536 12.3077 10.9682 12.5518 10.7412C13.0805 10.2497 13.4128 9.73054 13.4128 9.27333C13.4128 8.76018 13.2211 8.43043 12.9684 8.21603C12.6973 7.98595 12.3054 7.84942 11.8806 7.84941C11.4558 7.84941 11.064 7.98594 10.7928 8.21602Z" fill="white"/>
<rect x="11.0039" y="15.999" width="2" height="2" rx="1" fill="white"/>
</g>
</svg>
