<svg class="refresh_svg" width="20" height="20" viewBox="0 0 20 20" fill="none" xmlns="http://www.w3.org/2000/svg">
<circle cx="10.0002" cy="10" r="7.5" fill="white" stroke="#B2BBC6"/>
<path fill-rule="evenodd" clip-rule="evenodd" d="M10.0182 6.94895V5.60976C10.0182 5.39376 10.2774 5.28816 10.4262 5.44176L12.2502 7.26095C12.3462 7.35695 12.3462 7.50575 12.2502 7.60175L10.431 9.42095C10.2774 9.56975 10.0182 9.46415 10.0182 9.24815V7.90895C8.22778 7.90895 6.81178 9.55055 7.20538 11.4082C7.43098 12.4978 8.31418 13.3762 9.39898 13.6018C11.1126 13.9618 12.639 12.7858 12.8694 11.197C12.903 10.9666 13.1046 10.789 13.3398 10.789C13.6278 10.789 13.8582 11.0434 13.8198 11.3314C13.5222 13.4386 11.5158 14.9986 9.24538 14.557C7.74778 14.2642 6.54298 13.0594 6.25018 11.5618C5.77498 9.09935 7.64698 6.94895 10.0182 6.94895Z" fill="#B2BBC6"/>
</svg>
