<svg class="setting_svg" width="24" height="24" viewBox="0 0 24 24" fill="none" xmlns="http://www.w3.org/2000/svg">
<g>
<path d="M12 15.25C10.2061 15.25 8.75 13.7939 8.75 12C8.75 10.2061 10.2061 8.75 12 8.75C13.7939 8.75 15.25 10.2061 15.25 12C15.25 13.7939 13.7939 15.25 12 15.25ZM12 9.25C10.4839 9.25 9.25 10.4839 9.25 12C9.25 13.5161 10.4839 14.75 12 14.75C13.5161 14.75 14.75 13.5161 14.75 12C14.75 10.4839 13.5161 9.25 12 9.25Z" fill="#233142" stroke="#233142"/>
<path d="M9.29506 21.6258L9.29505 21.6258L9.28974 21.6272C8.78935 21.7623 8.27942 21.6905 7.84725 21.4312L7.84729 21.4312L7.83943 21.4266L6.11942 20.4366L6.11883 20.4363C5.62587 20.1534 5.26895 19.6938 5.11296 19.1305C4.96627 18.5649 5.04116 17.9912 5.32369 17.4988L5.32465 17.4971C5.48974 17.2068 5.60884 16.9075 5.656 16.6178C5.70286 16.33 5.68369 16.0141 5.52135 15.7371C5.21133 15.2083 4.53815 15.03 3.9 15.03C2.71614 15.03 1.75 14.0638 1.75 12.88V11.12C1.75 9.93612 2.71614 8.96998 3.9 8.96998C4.53815 8.96998 5.21133 8.7917 5.52135 8.26284C5.8349 7.72797 5.64497 7.04839 5.32247 6.49903C5.04025 6.00586 4.96658 5.42239 5.11336 4.86793L5.11381 4.86619C5.25952 4.30763 5.61339 3.84901 6.1158 3.56539L6.1158 3.5654L6.11834 3.56395L7.84834 2.57395L7.84837 2.574L7.85501 2.57007C8.74208 2.0441 9.92719 2.34714 10.4696 3.26447L10.4696 3.26448L10.4713 3.26723L10.5893 3.46392C10.92 4.0341 11.4019 4.47498 12.015 4.47498C12.6294 4.47498 13.1119 4.03234 13.4427 3.4605C13.4427 3.46044 13.4428 3.46039 13.4428 3.46033L13.5513 3.27284C13.5516 3.27247 13.5518 3.27209 13.552 3.27172C14.0945 2.34774 15.277 2.04441 16.1739 2.57939L16.1738 2.57944L16.1806 2.58333L17.9006 3.57333L17.9012 3.57366C18.3941 3.85652 18.7511 4.3162 18.907 4.87945C19.0537 5.44507 18.9788 6.01875 18.6963 6.51114L18.6954 6.51283C18.5303 6.80317 18.4112 7.10244 18.364 7.39214C18.3171 7.67997 18.3363 7.99591 18.4987 8.27284C18.8087 8.8017 19.4819 8.97998 20.12 8.97998C21.3039 8.97998 22.27 9.94612 22.27 11.13V12.89C22.27 14.0738 21.3039 15.04 20.12 15.04C19.4818 15.04 18.8087 15.2183 18.4987 15.7471C18.1851 16.282 18.375 16.9616 18.6975 17.5109C18.9824 18.0086 19.0608 18.59 18.9084 19.1354L18.9084 19.1354L18.9062 19.1438C18.7605 19.7023 18.4066 20.1609 17.9042 20.4446L17.9017 20.446L16.1751 21.4341C15.8657 21.6044 15.5395 21.69 15.21 21.69C15.05 21.69 14.8823 21.6674 14.7042 21.6256C14.2097 21.4879 13.8 21.1781 13.5387 20.7427L13.4207 20.546C13.0899 19.9758 12.6081 19.535 11.995 19.535C11.3806 19.535 10.898 19.9777 10.5672 20.5496L10.4592 20.7361C10.4589 20.7366 10.4586 20.7371 10.4583 20.7376C10.1931 21.1868 9.7813 21.5004 9.29506 21.6258ZM13.8567 20.2895L13.8573 20.2905L13.9659 20.4781C13.9661 20.4785 13.9664 20.479 13.9667 20.4794C14.1561 20.81 14.4704 21.043 14.8387 21.1351C15.1931 21.2236 15.5696 21.1838 15.8933 20.9911L17.6199 19.9931C17.9901 19.7795 18.2775 19.4225 18.3931 18.9888C18.5063 18.5644 18.451 18.1178 18.2331 17.7401L18.2322 17.7386C17.7242 16.8652 17.7069 16.0506 18.0341 15.478C18.3586 14.9102 19.0688 14.52 20.09 14.52C21.0061 14.52 21.74 13.7861 21.74 12.87V11.11C21.74 10.2067 21.009 9.45998 20.09 9.45998C19.0688 9.45998 18.3586 9.0698 18.0341 8.50191C17.7069 7.92934 17.7242 7.11476 18.2322 6.24137L18.2331 6.23984C18.451 5.86217 18.5063 5.41559 18.3931 4.99115C18.2776 4.55813 18.0025 4.21595 17.642 3.99415L17.6353 3.98997L17.6283 3.98601L15.903 2.99868C15.2278 2.59474 14.3551 2.83617 13.9595 3.50562L13.9595 3.50561L13.9573 3.50946L13.8473 3.69946L13.8467 3.7005C13.3372 4.58533 12.6503 4.99998 11.99 4.99998C11.3308 4.99998 10.6449 4.58662 10.1357 3.70461L10.0281 3.50902L10.024 3.50156L10.0196 3.49424C9.6304 2.84031 8.76766 2.60925 8.09931 2.99737C8.0991 2.99749 8.0989 2.99761 8.09869 2.99773L6.37014 3.99689C6.37005 3.99694 6.36995 3.99699 6.36986 3.99705C6.36983 3.99706 6.36981 3.99708 6.36978 3.9971C5.99973 4.21071 5.7125 4.56758 5.59688 5.00115C5.4837 5.42559 5.53902 5.87217 5.7569 6.24984L5.75779 6.25137C6.26579 7.12476 6.28306 7.93934 5.95588 8.51191C5.63137 9.0798 4.9212 9.46998 3.9 9.46998C2.98386 9.46998 2.25 10.2038 2.25 11.12V12.88C2.25 13.7833 2.98103 14.53 3.9 14.53C4.9212 14.53 5.63137 14.9202 5.95588 15.4881C6.28306 16.0606 6.26579 16.8752 5.75779 17.7486L5.75691 17.7501C5.53902 18.1278 5.4837 18.5744 5.59688 18.9988C5.71235 19.4318 5.98753 19.774 6.34795 19.9958L6.35474 20L6.36166 20.0039L8.08504 20.9902C8.41615 21.1919 8.80356 21.2351 9.15373 21.1444C9.53454 21.0485 9.836 20.7987 10.0251 20.4932L10.029 20.4869L10.0327 20.4805L10.1422 20.2914C10.1423 20.2912 10.1424 20.2911 10.1424 20.291C10.6537 19.4122 11.3419 18.99 12 18.99C12.6603 18.99 13.3472 19.4046 13.8567 20.2895Z" fill="#233142" stroke="#233142"/>
</g>
</svg>
