<svg width="24" height="24" viewBox="0 0 24 24" fill="none" xmlns="http://www.w3.org/2000/svg">
<path d="M16.5 9C17.8807 9 19 7.88071 19 6.5C19 5.11929 17.8807 4 16.5 4C15.1193 4 14 5.11929 14 6.5C14 7.88071 15.1193 9 16.5 9Z" stroke="#233142" stroke-width="1.5" stroke-linecap="round" stroke-linejoin="round"/>
<path d="M6.5 14.8335C7.88071 14.8335 9 13.7142 9 12.3335C9 10.9528 7.88071 9.8335 6.5 9.8335C5.11929 9.8335 4 10.9528 4 12.3335C4 13.7142 5.11929 14.8335 6.5 14.8335Z" stroke="#233142" stroke-width="1.5" stroke-linecap="round" stroke-linejoin="round"/>
<path d="M16.5 20.6665C17.8807 20.6665 19 19.5472 19 18.1665C19 16.7858 17.8807 15.6665 16.5 15.6665C15.1193 15.6665 14 16.7858 14 18.1665C14 19.5472 15.1193 20.6665 16.5 20.6665Z" stroke="#233142" stroke-width="1.5" stroke-linecap="round" stroke-linejoin="round"/>
<path d="M8.65833 13.5918L14.35 16.9085" stroke="#233142" stroke-width="1.5" stroke-linecap="round" stroke-linejoin="round"/>
<path d="M14.3417 7.7583L8.65833 11.075" stroke="#233142" stroke-width="1.5" stroke-linecap="round" stroke-linejoin="round"/>
</svg>
