<svg width="24" height="24" viewBox="0 0 24 24" fill="none" xmlns="http://www.w3.org/2000/svg">
<path d="M20.485 3H16.493L16.993 8C16.993 8 17.993 9 19.493 9C20.2805 9.00104 21.0411 8.71441 21.632 8.194C21.6945 8.13563 21.741 8.0623 21.7673 7.98094C21.7935 7.89958 21.7986 7.81287 21.782 7.729L21.076 3.5C21.0524 3.36029 20.9801 3.23345 20.872 3.14194C20.7638 3.05042 20.6267 3.00014 20.485 3Z" fill="#233142" stroke="#233142" stroke-width="1.5"/>
<path d="M16.493 3L16.993 8C16.993 8 15.993 9 14.493 9C12.993 9 11.993 8 11.993 8V3H16.493Z" fill="#233142" stroke="#233142" stroke-width="1.5"/>
<path d="M11.993 3V8C11.993 8 10.993 9 9.49304 9C7.99304 9 6.99304 8 6.99304 8L7.49304 3H11.993Z" fill="#233142" stroke="#233142" stroke-width="1.5"/>
<path d="M7.49301 3H3.50201C3.36001 2.99995 3.22258 3.05026 3.11419 3.142C3.00579 3.23373 2.93344 3.36094 2.91001 3.501L2.20501 7.73C2.18853 7.81387 2.19366 7.90055 2.2199 7.98189C2.24614 8.06324 2.29263 8.13657 2.35501 8.195C2.68301 8.485 3.41601 9.001 4.49301 9.001C5.99301 9.001 6.99301 8.001 6.99301 8.001L7.49301 3Z" fill="#233142" stroke="#233142" stroke-width="1.5"/>
<path fill-rule="evenodd" clip-rule="evenodd" d="M2.5 6L2.5 18.5C2.5 19.264 2.74187 20.0133 3.19535 20.5801C3.65115 21.1499 4.29637 21.5 5 21.5L19 21.5C19.7036 21.5 20.3489 21.1499 20.8046 20.5801C21.2581 20.0133 21.5 19.264 21.5 18.5L21.5 6H21H20.5L3.5 6H3H2.5Z" fill="#233142"/>
<path fill-rule="evenodd" clip-rule="evenodd" d="M6.8143 2.24998L3.50233 2.24998C3.18291 2.24992 2.87355 2.36313 2.62972 2.56947C2.38583 2.77588 2.22298 3.06252 2.17026 3.37765L1.46664 7.59838C1.42867 7.803 1.44222 8.01393 1.50615 8.21212C1.57144 8.41451 1.68712 8.59697 1.84233 8.74235L1.85019 8.74972L1.85826 8.75685C2.2626 9.11434 3.16558 9.75098 4.49305 9.75098C5.41088 9.75098 6.16435 9.44547 6.67765 9.15216C6.79434 9.08548 6.89996 9.01869 6.99378 8.95501C7.08724 9.01838 7.19236 9.08483 7.30844 9.15116C7.82174 9.44447 8.57521 9.74998 9.49304 9.74998C10.4109 9.74998 11.1643 9.44447 11.6776 9.15116C11.794 9.08465 11.8994 9.01803 11.9931 8.9545C12.0867 9.01803 12.1921 9.08465 12.3085 9.15116C12.8218 9.44447 13.5752 9.74998 14.4931 9.74998C15.4109 9.74998 16.1644 9.44447 16.6777 9.15116C16.7941 9.08465 16.8994 9.01803 16.9931 8.95451C17.0867 9.01803 17.1921 9.08465 17.3085 9.15116C17.8217 9.4444 18.5749 9.74983 19.4924 9.74998C20.4626 9.75117 21.3997 9.398 22.1278 8.75682L22.1361 8.74949L22.1442 8.74192C22.2998 8.5965 22.4157 8.41384 22.4811 8.21116C22.5451 8.01281 22.5586 7.80171 22.5204 7.59696L21.8158 3.37648L21.8156 3.37498C21.7625 3.06064 21.5998 2.77525 21.3564 2.56934C21.113 2.36343 20.8039 2.2503 20.4851 2.24998L17.1718 2.24998H15.6643H12.743L11.2431 2.24998H8.32177H6.8143Z" fill="#676DFF"/>
</svg>
