<svg width="24" height="24" viewBox="0 0 24 24" fill="none" xmlns="http://www.w3.org/2000/svg">
<path fill-rule="evenodd" clip-rule="evenodd" d="M12.888 15.3427C13.1809 15.0498 13.6558 15.0498 13.9487 15.3427L17.5092 18.9033L21.0698 15.3427C21.3627 15.0498 21.8376 15.0498 22.1305 15.3427C22.4234 15.6356 22.4234 16.1105 22.1305 16.4034L18.5699 19.964C17.9841 20.5497 17.0344 20.5497 16.4486 19.964L12.888 16.4034C12.5951 16.1105 12.5951 15.6356 12.888 15.3427Z" fill="#233142"/>
<path fill-rule="evenodd" clip-rule="evenodd" d="M17.509 9.39496C17.9232 9.39496 18.259 9.73074 18.259 10.145L18.259 19.5C18.259 19.9143 17.9232 20.25 17.509 20.25C17.0948 20.25 16.759 19.9143 16.759 19.5L16.759 10.145C16.759 9.73074 17.0948 9.39496 17.509 9.39496Z" fill="#233142"/>
<path fill-rule="evenodd" clip-rule="evenodd" d="M3.25 12C3.25 11.5858 3.58579 11.25 4 11.25L11.3636 11.25C11.7778 11.25 12.1136 11.5858 12.1136 12C12.1136 12.4142 11.7778 12.75 11.3636 12.75L4 12.75C3.58579 12.75 3.25 12.4142 3.25 12Z" fill="#233142"/>
<path fill-rule="evenodd" clip-rule="evenodd" d="M2.84998 5.23596C2.84998 4.82175 3.18576 4.48596 3.59998 4.48596L17.5091 4.48596C17.9233 4.48596 18.2591 4.82175 18.2591 5.23596C18.2591 5.65018 17.9233 5.98596 17.5091 5.98596L3.59998 5.98596C3.18576 5.98596 2.84998 5.65018 2.84998 5.23596Z" fill="#233142"/>
<path fill-rule="evenodd" clip-rule="evenodd" d="M2.84998 18.3266C2.84998 17.9124 3.18576 17.5766 3.59998 17.5766H9.32725C9.74146 17.5766 10.0772 17.9124 10.0772 18.3266C10.0772 18.7408 9.74146 19.0766 9.32725 19.0766H3.59998C3.18576 19.0766 2.84998 18.7408 2.84998 18.3266Z" fill="#233142"/>
</svg>
