<svg width="36" height="36" viewBox="0 0 36 36" fill="none" xmlns="http://www.w3.org/2000/svg">
<g id="type=thumb_up, size=l">
<path id="Vector" d="M9.97058 27.7703V11.3201C9.97058 10.6724 10.1822 10.041 10.5703 9.50665L15.3854 2.93305C16.1438 1.88063 18.0311 1.13583 19.6361 1.68633C21.3646 2.22064 22.5111 4.00167 22.1407 5.5884L21.2235 10.8829C21.153 11.3686 21.2941 11.8058 21.5939 12.1458C21.8938 12.4534 22.3347 12.6477 22.8109 12.6477H30.0601C31.4535 12.6477 32.6529 13.1659 33.3584 14.0726C34.0286 14.9469 34.1521 16.0803 33.7112 17.2298L29.3722 29.357C28.8255 31.3647 26.4443 33 24.0809 33H17.2021C16.0204 33 14.3624 32.6276 13.604 31.9314L11.3463 30.3285C10.4821 29.7294 9.97058 28.7741 9.97058 27.7703Z" fill="#FFDDDB"/>
<path id="Vector_2" d="M8.66225 9.90015H7.04357C4.60768 9.90015 3.61761 10.7862 3.61761 12.9719V27.8284C3.61761 30.0141 4.60768 30.9001 7.04357 30.9001H8.66225C11.0981 30.9001 12.0882 30.0141 12.0882 27.8284V12.9719C12.0882 10.7862 11.0981 9.90015 8.66225 9.90015Z" fill="#F1351C"/>
</g>
</svg>
