<svg class="thumb_down_gray_svg" width="28" height="28" viewBox="0 0 28 28" fill="none" xmlns="http://www.w3.org/2000/svg">
<g id="type=thumb_down_gray, size=s">
<path id="Vector" opacity="0.35" d="M20.2451 6.40091L20.2451 19.1955C20.2451 19.6992 20.0805 20.1904 19.7787 20.6059L16.0336 25.7187C15.4437 26.5373 13.9758 27.1166 12.7275 26.6884C11.3831 26.2728 10.4914 24.8876 10.7795 23.6535L11.4928 19.5355C11.5477 19.1577 11.4379 18.8177 11.2047 18.5533C10.9715 18.314 10.6286 18.1629 10.2582 18.1629H4.61993C3.53618 18.1629 2.60333 17.7599 2.0546 17.0547C1.5333 16.3747 1.43727 15.4931 1.78023 14.599L5.15494 5.16678C5.58021 3.60524 7.43219 2.33333 9.27045 2.33333H14.6206C15.5397 2.33333 16.8293 2.62298 17.4191 3.16448L19.1751 4.4112C19.8473 4.87714 20.2451 5.62014 20.2451 6.40091Z" fill="#788799"/>
<path id="Vector_2" d="M21.2627 20.2999H22.5217C24.4162 20.2999 25.1863 19.6107 25.1863 17.9108V6.35568C25.1863 4.65572 24.4162 3.96655 22.5217 3.96655H21.2627C19.3681 3.96655 18.598 4.65572 18.598 6.35568V17.9108C18.598 19.6107 19.3681 20.2999 21.2627 20.2999Z" fill="#233142"/>
</g>
</svg>
