<svg class="thumb_down_svg" width="24" height="24" viewBox="0 0 24 24" fill="none" xmlns="http://www.w3.org/2000/svg">
<path d="M13.1381 21.6014L13.1381 21.6014L13.1347 21.6061C12.9951 21.7998 12.7024 22.0191 12.3064 22.1475C11.9183 22.2735 11.5057 22.2874 11.1526 22.1663L11.1418 22.1626L11.1308 22.1592C10.2873 21.8985 9.82772 21.0543 9.96997 20.4449L9.9749 20.4238L9.9786 20.4024L10.59 16.8727L10.5918 16.8627L10.5933 16.8525C10.6724 16.3075 10.51 15.7961 10.1666 15.4067L10.1543 15.3927L10.1412 15.3793C9.79898 15.0282 9.31083 14.8182 8.79278 14.8182H3.96C3.20904 14.8182 2.65279 14.5413 2.35472 14.1598C2.09041 13.8135 2.01201 13.3405 2.22623 12.782L2.22928 12.7741L2.23214 12.7661L5.12475 4.68133L5.13457 4.65388L5.14223 4.62575C5.26694 4.16784 5.62167 3.69604 6.15329 3.33031C6.68092 2.96733 7.32554 2.75 7.94617 2.75H12.532C12.8563 2.75 13.2629 2.80237 13.6389 2.90546C14.0324 3.01334 14.3002 3.15163 14.4236 3.26492L14.4582 3.29672L14.4966 3.32395L16.0017 4.39256L16.0016 4.3926L16.0086 4.39742C16.3925 4.66356 16.603 5.07504 16.603 5.48649L16.603 16.4533C16.603 16.7197 16.5163 16.9871 16.3472 17.2204C16.3469 17.2208 16.3467 17.2211 16.3464 17.2215L13.1381 21.6014Z" stroke="#233142" stroke-width="1.5"/>
<path d="M19.3043 16.6499H18.2252C17.4739 16.6499 17.1346 16.5072 16.9748 16.3639C16.8356 16.2392 16.6912 15.9845 16.6912 15.3521V5.44772C16.6912 4.81529 16.8356 4.5606 16.9748 4.43591C17.1346 4.29263 17.4739 4.1499 18.2252 4.1499H19.3043C20.0556 4.1499 20.3948 4.29263 20.5547 4.43591C20.6938 4.5606 20.8383 4.81529 20.8383 5.44772V15.3521C20.8383 15.9845 20.6938 16.2392 20.5547 16.3639C20.3948 16.5072 20.0556 16.6499 19.3043 16.6499Z" stroke="#233142" stroke-width="1.5"/>
</svg>
