<svg class="thumb_up_green_svg" width="28" height="28" viewBox="0 0 28 28" fill="none" xmlns="http://www.w3.org/2000/svg">
<g id="type=thumb_up_gray, size=s">
<path id="Vector" d="M7.75488 21.5991V8.80449C7.75488 8.30077 7.9195 7.80964 8.22131 7.39406L11.9664 2.28126C12.5563 1.46271 14.0242 0.883427 15.2725 1.31159C16.6169 1.72717 17.5086 3.11241 17.2205 4.34653L16.5072 8.46448C16.4523 8.84227 16.5621 9.18229 16.7953 9.44674C17.0285 9.68601 17.3714 9.83713 17.7418 9.83713H23.3801C24.4638 9.83713 25.3967 10.2401 25.9454 10.9453C26.4667 11.6254 26.5627 12.5069 26.2198 13.401L22.8451 22.8332C22.4198 24.3948 20.5678 25.6667 18.7296 25.6667H13.3794C12.4603 25.6667 11.1707 25.377 10.5809 24.8355L8.82491 23.5888C8.15271 23.1229 7.75488 22.3799 7.75488 21.5991Z" fill="#FFDDDB"/>
<path id="Vector_2" d="M6.73733 7.70011H5.47835C3.58377 7.70011 2.81372 8.38928 2.81372 10.0892V21.6443C2.81372 23.3443 3.58377 24.0334 5.47835 24.0334H6.73733C8.6319 24.0334 9.40196 23.3443 9.40196 21.6443V10.0892C9.40196 8.38928 8.6319 7.70011 6.73733 7.70011Z" fill="#10D66B"/>
</g>
</svg>
