<svg width="24" height="24" viewBox="0 0 24 24" fill="none" xmlns="http://www.w3.org/2000/svg">
<path d="M10.8619 2.39856L10.8619 2.39857L10.8653 2.39386C11.0049 2.20021 11.2976 1.98093 11.6936 1.85245C12.0817 1.72654 12.4943 1.71256 12.8474 1.83365L12.8582 1.83738L12.8692 1.84077C13.7127 2.1015 14.1723 2.9457 14.03 3.55511L14.0251 3.57622L14.0214 3.59758L13.41 7.12725L13.4082 7.13734L13.4067 7.14746C13.3276 7.69248 13.49 8.20394 13.8334 8.59327L13.8457 8.6073L13.8588 8.6207C14.201 8.97181 14.6892 9.18182 15.2072 9.18182H20.04C20.791 9.18182 21.3472 9.4587 21.6453 9.84017C21.9096 10.1865 21.988 10.6595 21.7738 11.218L21.7707 11.2259L21.7679 11.2339L18.8752 19.3187L18.8654 19.3461L18.8578 19.3743C18.7331 19.8322 18.3783 20.304 17.8467 20.6697C17.3191 21.0327 16.6745 21.25 16.0538 21.25H11.468C11.1437 21.25 10.7371 21.1976 10.3611 21.0945C9.9676 20.9867 9.69984 20.8484 9.57643 20.7351L9.54178 20.7033L9.50343 20.6761L7.99833 19.6074L7.99836 19.6074L7.99141 19.6026C7.60746 19.3364 7.39697 18.925 7.39697 18.5135V7.54671C7.39697 7.28032 7.48372 7.01288 7.65282 6.77959C7.65308 6.77922 7.65335 6.77885 7.65361 6.77849L10.8619 2.39856Z" stroke="#233142" stroke-width="1.5"/>
<path d="M4.69571 7.3501H5.77483C6.5261 7.3501 6.86536 7.49283 7.02523 7.63611C7.16435 7.7608 7.3088 8.01548 7.3088 8.64792V18.5523C7.3088 19.1847 7.16435 19.4394 7.02523 19.5641C6.86536 19.7074 6.5261 19.8501 5.77483 19.8501H4.69571C3.94444 19.8501 3.60518 19.7074 3.44532 19.5641C3.30619 19.4394 3.16174 19.1847 3.16174 18.5523V8.64792C3.16174 8.01548 3.30619 7.7608 3.44532 7.63611C3.60518 7.49283 3.94444 7.3501 4.69571 7.3501Z" stroke="#233142" stroke-width="1.5"/>
</svg>
