<svg width="24" height="24" viewBox="0 0 24 24" fill="none" xmlns="http://www.w3.org/2000/svg">
<path d="M10.4929 12.1626H5.67907C5.14736 12.1626 4.71631 11.7316 4.71631 11.1999V7.83019C4.71631 7.29848 5.14736 6.86743 5.67907 6.86743H9.53012C10.0618 6.86743 10.4929 7.29848 10.4929 7.83019V12.1626ZM10.4929 12.1626C10.4929 14.5695 9.53012 16.0137 6.64183 17.4578" stroke="#233142" stroke-width="1.5" stroke-linecap="round"/>
<path d="M19.1206 12.1626H14.3068C13.775 12.1626 13.344 11.7316 13.344 11.1999V7.83019C13.344 7.29848 13.775 6.86743 14.3068 6.86743H18.1578C18.6895 6.86743 19.1206 7.29848 19.1206 7.83019V12.1626ZM19.1206 12.1626C19.1206 14.5695 18.1578 16.0137 15.2695 17.4578" stroke="#233142" stroke-width="1.5" stroke-linecap="round"/>
<rect x="5" y="6.75" width="5" height="5" fill="#233142"/>
<rect x="14" y="6.75" width="5" height="5" fill="#233142"/>
</svg>
