<svg class="txt_number_svg" width="24" height="24" viewBox="0 0 24 24" fill="none" xmlns="http://www.w3.org/2000/svg">
<path d="M9.1875 6.375H19.5" stroke="#233142" stroke-width="1.5" stroke-linecap="round" stroke-linejoin="round"/>
<path d="M5.4373 8.25V4.5L4.53741 5.04021" stroke="#233142" stroke-width="1.5" stroke-linecap="round" stroke-linejoin="round"/>
<path d="M6.375 13.875H5.0625C4.75184 13.875 4.5 13.6232 4.5 13.3125V12.5625C4.5 12.2518 4.75184 12 5.0625 12H5.8125C6.12316 12 6.375 11.7482 6.375 11.4375V10.6875C6.375 10.3768 6.12316 10.125 5.8125 10.125H4.5" stroke="#233142" stroke-width="1.5" stroke-linecap="round" stroke-linejoin="round"/>
<path d="M4.5 15.75H5.8125C6.12316 15.75 6.375 16.0018 6.375 16.3125V18.9375C6.375 19.2482 6.12316 19.5 5.8125 19.5H4.5" stroke="#233142" stroke-width="1.5" stroke-linecap="round" stroke-linejoin="round"/>
<path d="M6.375 17.625H4.5" stroke="#233142" stroke-width="1.5" stroke-linecap="round" stroke-linejoin="round"/>
<path d="M9.1875 12H19.5" stroke="#233142" stroke-width="1.5" stroke-linecap="round" stroke-linejoin="round"/>
<path d="M9.1875 17.625H19.5" stroke="#233142" stroke-width="1.5" stroke-linecap="round" stroke-linejoin="round"/>
</svg>
