<svg class="user_pc_svg" width="24" height="24" viewBox="0 0 24 24" fill="none" xmlns="http://www.w3.org/2000/svg">
<g>
<path fill-rule="evenodd" clip-rule="evenodd" d="M12.0017 3.00165C14.7129 3.00165 16.9108 5.19952 16.9108 7.91074C16.9108 9.45189 16.2006 10.8272 15.0897 11.7272C18.5392 12.9872 21.0017 16.2977 21.0017 20.1835C21.0017 20.6353 20.6354 21.0016 20.1835 21.0016C19.7317 21.0016 19.3654 20.6353 19.3654 20.1835C19.3654 16.1166 16.0685 12.8198 12.0017 12.8198C7.93489 12.8198 4.63808 16.1166 4.63808 20.1835C4.63808 20.6353 4.27177 21.0016 3.8199 21.0016C3.36803 21.0016 3.00172 20.6353 3.00172 20.1835C3.00172 16.2977 5.46421 12.9872 8.91376 11.7272C7.80281 10.8272 7.09263 9.45189 7.09263 7.91074C7.09263 5.19952 9.2905 3.00165 12.0017 3.00165ZM12.0017 4.63801C10.1942 4.63801 8.72899 6.10326 8.72899 7.91074C8.72899 9.71821 10.1942 11.1835 12.0017 11.1835C13.8092 11.1835 15.2744 9.71821 15.2744 7.91074C15.2744 6.10326 13.8092 4.63801 12.0017 4.63801Z" fill="#233142"/>
</g>
</svg>
