<svg class="user_fill_svg" width="24" height="24" viewBox="0 0 24 24" fill="none" xmlns="http://www.w3.org/2000/svg">
<g>
<path d="M1.25 12C1.25 17.93 6.07 22.75 12 22.75C17.93 22.75 22.75 17.93 22.75 12C22.75 6.07 17.93 1.25 12 1.25C6.07 1.25 1.25 6.07 1.25 12Z" fill="#233142"/>
<path d="M12.05 13.53H12.12H12.15C14.32 13.46 16.03 11.7 16.04 9.50998C16.04 7.28998 14.23 5.47998 12.01 5.47998C9.78998 5.47998 7.97998 7.28998 7.97998 9.50998C7.97998 11.69 9.67998 13.46 11.95 13.53H12.05Z" fill="white"/>
<path d="M4.74996 19.93C6.73996 21.75 9.30996 22.75 12 22.75C14.69 22.75 17.26 21.75 19.25 19.93C19.43 19.77 19.52 19.54 19.49 19.3C19.36 18.11 18.62 17.01 17.39 16.18C14.42 14.2 9.58996 14.2 6.60996 16.18C5.37996 17 4.63996 18.11 4.50996 19.3C4.48996 19.53 4.56996 19.77 4.74996 19.93Z" fill="#676DFF"/>
</g>
</svg>
