<svg class="user_minus_svg" width="24" height="24" viewBox="0 0 24 24" fill="none" xmlns="http://www.w3.org/2000/svg">
<path fill-rule="evenodd" clip-rule="evenodd" d="M6.40988 7.91074C6.40988 5.19952 8.60775 3.00165 11.319 3.00165C14.0302 3.00165 16.2281 5.19952 16.2281 7.91074C16.2281 9.45189 15.5179 10.8272 14.4069 11.7272C17.8565 12.9872 20.319 16.2977 20.319 20.1835C20.319 20.6353 19.9527 21.0016 19.5008 21.0016C19.0489 21.0016 18.6826 20.6353 18.6826 20.1835C18.6826 16.1166 15.3858 12.8198 11.319 12.8198C9.88872 12.8198 8.55371 13.2276 7.42385 13.9332L7.41483 13.9141C7.32201 13.9507 7.22087 13.9708 7.11504 13.9708C6.66363 13.9708 6.29768 13.6049 6.29768 13.1535C6.29768 12.815 6.50347 12.5245 6.79676 12.4004C7.25108 12.1358 7.73066 11.9099 8.23102 11.7272C7.12006 10.8272 6.40988 9.45189 6.40988 7.91074ZM14.5917 7.91074C14.5917 6.10326 13.1264 4.63801 11.319 4.63801C9.51149 4.63801 8.04624 6.10326 8.04624 7.91074C8.04624 9.71821 9.51149 11.1835 11.319 11.1835C13.1264 11.1835 14.5917 9.71821 14.5917 7.91074ZM9.48694 16.3404C9.90115 16.3404 10.2369 16.6762 10.2369 17.0904C10.2369 17.5046 9.90115 17.8404 9.48694 17.8404H3.75164C3.33743 17.8404 3.00164 17.5046 3.00164 17.0904C3.00164 16.6762 3.33743 16.3404 3.75164 16.3404H9.48694Z" fill="#233142"/>
</svg>
