<svg class="view_svg" width="24" height="24" viewBox="0 0 24 24" fill="none" xmlns="http://www.w3.org/2000/svg">
<path d="M2.25184 12.0228L2.25185 12.0228L2.24976 12.0196C5.10001 7.93555 8.63971 6 11.9839 6C15.9684 6 19.5619 8.61914 21.7497 11.9973C21.7503 11.9983 21.7506 11.9995 21.7506 12.0007C21.7506 12.002 21.7503 12.0032 21.7496 12.0042L21.7482 12.0065C19.5686 15.4195 16.0043 18 11.9839 18C7.91789 18 4.42877 15.4304 2.25184 12.0228Z" stroke="#233142" stroke-width="1.5"/>
<path d="M15.0009 11.9999C15.0009 13.6571 13.6576 15.0005 12.0004 15.0005C10.3433 15.0005 8.99988 13.6571 8.99988 11.9999C8.99988 10.3428 10.3433 8.99939 12.0004 8.99939C13.6576 8.99939 15.0009 10.3428 15.0009 11.9999Z" stroke="#233142" stroke-width="1.5"/>
</svg>
