<svg width="24" height="24" viewBox="0 0 24 24" fill="none" xmlns="http://www.w3.org/2000/svg">
<path fill-rule="evenodd" clip-rule="evenodd" d="M19.9722 12C18.982 15.9757 15.7676 19 12 19C8.23241 19 5.01795 15.9757 4.02779 12C5.01795 8.02429 8.23241 5 12 5C15.7676 5 18.982 8.0243 19.9722 12ZM12 20C16.4183 20 20 16.4183 21 12C20 7.58172 16.4183 4 12 4C7.58172 4 4 7.58172 3 12C4 16.4183 7.58172 20 12 20Z" fill="#B2BBC6"/>
<path fill-rule="evenodd" clip-rule="evenodd" d="M12 14C13.1046 14 14 13.1046 14 12C14 10.8954 13.1046 10 12 10C10.8954 10 10 10.8954 10 12C10 13.1046 10.8954 14 12 14ZM12 15C13.6569 15 15 13.6569 15 12C15 10.3431 13.6569 9 12 9C10.3431 9 9 10.3431 9 12C9 13.6569 10.3431 15 12 15Z" fill="#B2BBC6"/>
</svg>
