<svg width="60" height="60" viewBox="0 0 60 60" fill="none" xmlns="http://www.w3.org/2000/svg">
<circle cx="30" cy="30" r="26" fill="#E3E7EB"/>
<path fill-rule="evenodd" clip-rule="evenodd" d="M30 32.7068C28.8805 32.7068 27.973 31.7992 27.973 30.6797L27.973 19.8688C27.973 18.7493 28.8805 17.8418 30 17.8418C31.1195 17.8418 32.027 18.7493 32.027 19.8688L32.027 30.6797C32.027 31.7992 31.1195 32.7068 30 32.7068Z" fill="#B2BBC6"/>
<path fill-rule="evenodd" clip-rule="evenodd" d="M30 42.1582C31.1195 42.1582 32.027 41.2507 32.027 40.1312L32.027 38.7798C32.027 37.6603 31.1195 36.7528 30 36.7528C28.8805 36.7528 27.973 37.6603 27.973 38.7798L27.973 40.1312C27.973 41.2507 28.8805 42.1582 30 42.1582Z" fill="#B2BBC6"/>
</svg>
