<svg id="bold" xmlns="http://www.w3.org/2000/svg" width="11.973" height="13.975" viewBox="0 0 11.973 13.975">
    <rect id="사각형_25824" data-name="사각형 25824" width="11.973" height="13.975" opacity="0"/>
    <path id="패스_30738" data-name="패스 30738" d="M1.65,13.965H6.738c2.988,0,4.873-1.572,4.873-3.984A3.34,3.34,0,0,0,8.252,6.592V6.514a3.006,3.006,0,0,0,2.725-3C10.977,1.338,9.307,0,6.6,0H1.65A1.522,1.522,0,0,0,0,1.689v10.6A1.519,1.519,0,0,0,1.65,13.965Zm1.572-2.256V7.832H5.674c1.709,0,2.666.664,2.666,1.914,0,1.279-.918,1.963-2.6,1.963Zm0-5.908V2.295h2.4c1.367,0,2.178.625,2.178,1.7C7.8,5.127,6.9,5.8,5.381,5.8Z"/>
  </svg>
  