<svg width="58" height="58" viewBox="0 0 58 58" fill="none" xmlns="http://www.w3.org/2000/svg">
<circle cx="29" cy="29" r="28" fill="#1A1B1D" stroke="#111111"/>
<path fill-rule="evenodd" clip-rule="evenodd" d="M34.2032 15.5224C34.2032 16.8536 33.6153 18.1847 32.7854 19.1452C31.9035 20.2069 30.3821 20.9988 29.1718 20.999C29.0335 20.999 28.8951 20.982 28.8087 20.9652C28.7915 20.8978 28.7568 20.6955 28.7568 20.4934C28.7568 19.1452 29.4658 17.8141 30.2265 16.9715C31.1947 15.8763 32.8027 15.0506 34.1513 15C34.186 15.1517 34.2032 15.3371 34.2032 15.5224ZM38.957 23.9077C38.9906 23.8862 39.0136 23.8715 39.0244 23.8633C37.2263 21.3527 34.4944 21.2852 33.7335 21.285C32.571 21.285 31.5304 21.687 30.6556 22.0249C30.0213 22.27 29.4741 22.4814 29.0307 22.4814C28.5416 22.4814 27.9816 22.2608 27.3567 22.0147C26.5677 21.7039 25.6752 21.3524 24.6911 21.3524C21.3716 21.3524 18 24.0317 18 29.0868C18 32.2378 19.2448 35.5573 20.7836 37.6974C22.1148 39.5172 23.2733 41.0001 24.9331 41.0001C25.7203 41.0001 26.2975 40.7613 26.9044 40.5102C27.5772 40.2319 28.2867 39.9384 29.3593 39.9384C30.4425 39.9384 31.09 40.2139 31.7145 40.4797C32.2963 40.7272 32.8582 40.9663 33.7337 40.9663C35.549 40.9663 36.7421 39.3656 37.8832 37.7647C39.1626 35.9449 39.6987 34.1587 39.7159 34.0746C39.6121 34.0409 36.1369 32.676 36.1369 28.8173C36.1369 25.7115 38.5043 24.1973 38.957 23.9077Z" fill="white"/>
</svg>

