<svg width="48" height="48" viewBox="0 0 48 48" fill="none" xmlns="http://www.w3.org/2000/svg">
<path d="M24 47.5C11.0213 47.5 0.5 36.9787 0.5 24C0.5 11.0213 11.0213 0.5 24 0.5C36.9787 0.5 47.5 11.0213 47.5 24C47.5 36.9787 36.9787 47.5 24 47.5Z" fill="white" stroke="#F3F3F3"/>
<path fill-rule="evenodd" clip-rule="evenodd" d="M26.706 16.1292C26.0553 16.9271 24.9626 17.5255 24.0909 17.5255C23.9927 17.5255 23.8945 17.513 23.8331 17.5005C23.8208 17.4507 23.7962 17.3011 23.7962 17.1515C23.7962 16.1292 24.2996 15.1318 24.8521 14.496C25.5519 13.6607 26.7183 13.0374 27.6882 13C27.7127 13.1122 27.725 13.2493 27.725 13.3865C27.725 14.3963 27.2953 15.4061 26.706 16.1292ZM22.4361 32.2383C21.9986 32.4292 21.584 32.61 21.0214 32.61C19.8182 32.61 18.9834 31.488 18.0258 30.1167C16.9085 28.496 16 25.9903 16 23.6216C16 19.8069 18.4432 17.7873 20.8495 17.7873C21.5519 17.7873 22.1936 18.0488 22.7643 18.2813C23.2211 18.4675 23.6323 18.635 23.9925 18.635C24.305 18.635 24.6944 18.4788 25.1483 18.2966C25.7822 18.0423 26.5419 17.7374 27.3933 17.7374C27.9335 17.7374 29.9102 17.7873 31.2116 19.6822C31.2041 19.6881 31.1882 19.6988 31.165 19.7143C30.8448 19.9289 29.1367 21.0739 29.1367 23.4222C29.1367 26.3269 31.629 27.3616 31.715 27.3865C31.7128 27.3921 31.7077 27.4081 31.6996 27.4335C31.6176 27.691 31.2271 28.9184 30.389 30.1665C29.5664 31.3633 28.6947 32.585 27.3933 32.585C26.7519 32.585 26.3432 32.4013 25.9212 32.2115C25.4709 32.009 25.0054 31.7997 24.2258 31.7997C23.442 31.7997 22.9248 32.0252 22.4361 32.2383Z" fill="#30333A"/>
</svg>

