<svg width="343" height="180" viewBox="0 0 343 180" fill="none" xmlns="http://www.w3.org/2000/svg">
<rect width="343" height="180" rx="10" fill="#F3F3F3"/>
<path d="M156 96.6544L168.199 91.4265L175.169 94.595" stroke="#9F9F9F" stroke-width="2.61397" stroke-linecap="round" stroke-linejoin="round"/>
<path d="M178.654 86.1987C176.729 86.1987 175.169 84.6382 175.169 82.7134C175.169 80.7885 176.729 79.2281 178.654 79.2281C180.579 79.2281 182.139 80.7885 182.139 82.7134C182.139 84.6382 180.579 86.1987 178.654 86.1987Z" stroke="#9F9F9F" stroke-width="2.61397" stroke-linecap="round" stroke-linejoin="round"/>
<path d="M180.186 105.579L183.883 101.883M183.883 101.883L187.58 98.186M183.883 101.883L180.186 98.186M183.883 101.883L187.58 105.579" stroke="#9F9F9F" stroke-width="2.61397" stroke-linecap="round" stroke-linejoin="round"/>
<path d="M173.427 105.368H157.046C156.468 105.368 156 104.899 156 104.322V75.0456C156 74.4681 156.468 74 157.046 74H186.322C186.9 74 187.368 74.4681 187.368 75.0456V91.4264" stroke="#9F9F9F" stroke-width="2.61397" stroke-linecap="round" stroke-linejoin="round"/>
</svg>
