<svg width="58" height="58" viewBox="0 0 58 58" fill="none" xmlns="http://www.w3.org/2000/svg">
<circle cx="29" cy="29" r="28" fill="white" stroke="#F3F3F3"/>
<path d="M40.0445 29.27C40.0445 28.48 39.9752 27.73 39.8565 27H28.672V31.51H35.0758C34.7888 32.99 33.9475 34.24 32.7004 35.0899V38.0899H36.5209C38.7578 35.9999 40.0445 32.92 40.0445 29.27Z" fill="#4285F4"/>
<path d="M28.6704 41C31.8773 41 34.5596 39.92 36.5194 38.09L32.6988 35.09C31.6299 35.81 30.2739 36.25 28.6704 36.25C25.5724 36.25 22.9495 34.14 22.0093 31.29H18.0699V34.38C20.0198 38.3 24.0284 41 28.6704 41Z" fill="#34A853"/>
<path d="M22.0104 31.2901C21.763 30.5701 21.6343 29.8001 21.6343 29.0001C21.6343 28.2001 21.7729 27.4301 22.0104 26.7101V23.6201H18.0711C17.2595 25.2401 16.7943 27.0601 16.7943 29.0001C16.7943 30.9401 17.2595 32.7601 18.0711 34.38L22.0104 31.2901Z" fill="#FBBC05"/>
<path d="M28.6704 21.75C30.4224 21.75 31.9862 22.36 33.2234 23.55L36.6085 20.13C34.5596 18.19 31.8773 17 28.6704 17C24.0284 17 20.0198 19.7 18.0699 23.62L22.0093 26.7099C22.9495 23.86 25.5725 21.75 28.6704 21.75Z" fill="#EA4335"/>
</svg>
