<svg width="48" height="48" viewBox="0 0 48 48" fill="none" xmlns="http://www.w3.org/2000/svg">
<path d="M0 24C0 10.7452 10.7452 0 24 0C37.2548 0 48 10.7452 48 24C48 37.2548 37.2548 48 24 48C10.7452 48 0 37.2548 0 24Z" fill="#FAE64C"/>
<g clip-path="url(#clip0_1633_180001)">
<path d="M24.5715 15.8335C18.46 15.8335 13.5039 19.4299 13.5039 23.8654C13.5039 26.7526 15.6045 29.2822 18.7544 30.6984C18.5219 31.4909 17.9154 33.5715 17.7959 34.0164C17.6454 34.5691 18.015 34.561 18.2585 34.4126C18.4489 34.2968 21.291 32.523 22.5173 31.757C23.1836 31.8485 23.8698 31.8952 24.5715 31.8952C30.683 31.8952 35.639 28.2988 35.639 23.8633C35.639 19.4278 30.683 15.8335 24.5715 15.8335Z" fill="#111111"/>
</g>
<defs>
<clipPath id="clip0_1633_180001">
<rect width="22.1351" height="18.6665" fill="white" transform="translate(13.5039 15.8335)"/>
</clipPath>
</defs>
</svg>
 