<svg width="384" height="60" viewBox="0 0 384 60" fill="none" xmlns="http://www.w3.org/2000/svg">
<rect width="384" height="60" rx="8" fill="#F7E317"/>
<g clip-path="url(#clip0_1633_178976)">
<path d="M103.488 23C98.25 23 94.002 26.0826 94.002 29.8845C94.002 32.3592 95.8025 34.5275 98.5023 35.7414C98.3031 36.4206 97.7833 38.204 97.6808 38.5854C97.5518 39.0591 97.8686 39.0521 98.0773 38.925C98.2405 38.8257 100.677 37.3053 101.728 36.6487C102.299 36.7271 102.887 36.7672 103.488 36.7672C108.727 36.7672 112.975 33.6846 112.975 29.8827C112.975 26.0809 108.727 23 103.488 23Z" fill="#111111"/>
</g>
<path d="M130.992 24.5781C130.987 26.1875 130.81 27.6198 130.461 28.875C130.117 30.1302 129.479 31.2995 128.547 32.3828C127.615 33.4661 126.299 34.4323 124.602 35.2812L123.508 33.7812C124.674 33.2031 125.628 32.5807 126.367 31.9141C127.112 31.2422 127.69 30.5052 128.102 29.7031L123.898 30.0938L123.648 28.3906L128.703 28.0859C128.854 27.4714 128.953 26.8333 129 26.1719H124.398V24.5781H130.992ZM132.789 23.2188H134.789V28.6719H136.805V30.3125H134.789V37.4062H132.789V23.2188ZM144.82 24.5781C144.815 26.1875 144.638 27.6198 144.289 28.875C143.945 30.1302 143.307 31.2995 142.375 32.3828C141.443 33.4661 140.128 34.4323 138.43 35.2812L137.336 33.7812C138.503 33.2031 139.456 32.5807 140.195 31.9141C140.94 31.2422 141.518 30.5052 141.93 29.7031L137.727 30.0938L137.477 28.3906L142.531 28.0859C142.682 27.4714 142.781 26.8333 142.828 26.1719H138.227V24.5781H144.82ZM146.617 23.2188H148.617V28.6719H150.633V30.3125H148.617V37.4062H146.617V23.2188ZM157.711 23.9531C158.727 23.9531 159.641 24.1146 160.453 24.4375C161.266 24.7604 161.904 25.2188 162.367 25.8125C162.836 26.401 163.07 27.0781 163.07 27.8438C163.07 28.5469 162.883 29.1745 162.508 29.7266C162.138 30.2734 161.622 30.7188 160.961 31.0625C160.305 31.401 159.549 31.6172 158.695 31.7109V34.1406H164.242V35.7812H151.227V34.1406H156.711V31.7109C155.862 31.612 155.109 31.3932 154.453 31.0547C153.797 30.7109 153.284 30.2656 152.914 29.7188C152.549 29.1667 152.367 28.5417 152.367 27.8438C152.367 27.0781 152.599 26.401 153.062 25.8125C153.526 25.2188 154.161 24.7604 154.969 24.4375C155.781 24.1146 156.695 23.9531 157.711 23.9531ZM154.336 27.8438C154.336 28.3333 154.477 28.7552 154.758 29.1094C155.044 29.4583 155.44 29.724 155.945 29.9062C156.456 30.0885 157.044 30.1823 157.711 30.1875C158.383 30.1823 158.971 30.0885 159.477 29.9062C159.987 29.724 160.385 29.4583 160.672 29.1094C160.958 28.7552 161.102 28.3333 161.102 27.8438C161.102 27.375 160.958 26.9688 160.672 26.625C160.385 26.276 159.987 26.0104 159.477 25.8281C158.966 25.6406 158.378 25.5469 157.711 25.5469C157.049 25.5469 156.464 25.6406 155.953 25.8281C155.443 26.0104 155.044 26.276 154.758 26.625C154.477 26.9688 154.336 27.375 154.336 27.8438ZM178.07 35.8594H165.055V34.2188H170.539V32.0781H166.555V27.2969H174.602V25.7344H166.539V24.1406H176.57V28.8594H168.555V30.4531H176.898V32.0781H172.523V34.2188H178.07V35.8594ZM187.227 36.1562C186.409 36.1562 185.674 36.0156 185.023 35.7344C184.378 35.4531 183.867 35.0599 183.492 34.5547C183.122 34.0443 182.93 33.4635 182.914 32.8125H185.289C185.299 33.0885 185.391 33.3333 185.562 33.5469C185.734 33.7552 185.966 33.9193 186.258 34.0391C186.549 34.1589 186.878 34.2188 187.242 34.2188C187.612 34.2188 187.943 34.1536 188.234 34.0234C188.531 33.888 188.76 33.7057 188.922 33.4766C189.083 33.2422 189.164 32.974 189.164 32.6719C189.164 32.3646 189.078 32.0938 188.906 31.8594C188.734 31.6198 188.487 31.4323 188.164 31.2969C187.841 31.1615 187.461 31.0938 187.023 31.0938H185.977V29.3594H187.023C187.393 29.3594 187.721 29.2969 188.008 29.1719C188.294 29.0469 188.516 28.8698 188.672 28.6406C188.833 28.4115 188.914 28.151 188.914 27.8594C188.914 27.5729 188.846 27.3203 188.711 27.1016C188.576 26.8828 188.383 26.7135 188.133 26.5938C187.888 26.4688 187.602 26.4062 187.273 26.4062C186.94 26.4062 186.633 26.4661 186.352 26.5859C186.07 26.7005 185.844 26.8646 185.672 27.0781C185.5 27.2917 185.409 27.5417 185.398 27.8281H183.148C183.159 27.1927 183.344 26.625 183.703 26.125C184.068 25.6198 184.56 25.2292 185.18 24.9531C185.799 24.6719 186.492 24.5312 187.258 24.5312C188.029 24.5312 188.711 24.6719 189.305 24.9531C189.904 25.2344 190.365 25.6172 190.688 26.1016C191.016 26.5859 191.18 27.125 191.18 27.7188C191.18 28.1302 191.091 28.5052 190.914 28.8438C190.737 29.1771 190.484 29.4531 190.156 29.6719C189.833 29.8854 189.461 30.0312 189.039 30.1094V30.2031C189.862 30.3021 190.497 30.5859 190.945 31.0547C191.393 31.5234 191.612 32.1146 191.602 32.8281C191.607 33.4635 191.422 34.0365 191.047 34.5469C190.677 35.0521 190.159 35.4479 189.492 35.7344C188.826 36.0156 188.07 36.1562 187.227 36.1562ZM205.805 35.8125H192.789V34.1875H198.289V31.4062H200.273V34.1875H205.805V35.8125ZM193.227 30.3438C194.263 30.2188 195.148 29.9766 195.883 29.6172C196.617 29.2578 197.18 28.8307 197.57 28.3359C197.966 27.8359 198.195 27.3125 198.258 26.7656H193.914V25.1719H198.289V23.3906H200.273V25.1719H204.664V26.7656H200.32C200.378 27.3125 200.602 27.8359 200.992 28.3359C201.383 28.8307 201.945 29.2578 202.68 29.6172C203.419 29.9766 204.305 30.2188 205.336 30.3438L204.617 31.8906C203.367 31.7292 202.286 31.401 201.375 30.9062C200.464 30.4115 199.763 29.7891 199.273 29.0391C198.794 29.7891 198.102 30.4115 197.195 30.9062C196.289 31.401 195.211 31.7292 193.961 31.8906L193.227 30.3438ZM213.867 31.2188H207.039V24.3906H213.867V31.2188ZM208.68 32.5781H210.664V35.5938H218.414V37.1875H208.68V32.5781ZM211.898 29.6562V25.9844H209.008V29.6562H211.898ZM215.898 23.2188H217.898V27.3125H219.82V28.9531H217.898V33.5938H215.898V23.2188ZM232.773 37.4375H230.867V23.2188H232.773V37.4375ZM220.57 29.375C220.57 28.3281 220.695 27.4167 220.945 26.6406C221.201 25.8646 221.56 25.2708 222.023 24.8594C222.492 24.4427 223.039 24.2344 223.664 24.2344C224.232 24.2344 224.734 24.4036 225.172 24.7422C225.615 25.0807 225.971 25.5703 226.242 26.2109C226.518 26.8464 226.693 27.6042 226.766 28.4844H227.93V23.4219H229.805V36.7812H227.93V30.0625H226.781C226.724 30.9844 226.56 31.7839 226.289 32.4609C226.018 33.1328 225.656 33.6484 225.203 34.0078C224.755 34.3672 224.242 34.5469 223.664 34.5469C223.039 34.5469 222.492 34.3385 222.023 33.9219C221.56 33.5 221.201 32.901 220.945 32.125C220.695 31.3438 220.57 30.4271 220.57 29.375ZM222.414 29.375C222.409 30.4531 222.513 31.2682 222.727 31.8203C222.945 32.3672 223.258 32.6354 223.664 32.625C224.076 32.6354 224.393 32.3698 224.617 31.8281C224.846 31.2865 224.961 30.487 224.961 29.4297C224.961 28.3307 224.849 27.5026 224.625 26.9453C224.401 26.388 224.081 26.1094 223.664 26.1094C223.258 26.1094 222.945 26.3854 222.727 26.9375C222.513 27.4896 222.409 28.3021 222.414 29.375ZM243.492 26.4375C243.487 27.3281 243.62 28.1875 243.891 29.0156C244.161 29.8438 244.568 30.5807 245.109 31.2266C245.651 31.8724 246.31 32.3594 247.086 32.6875L245.914 34.2812C245.122 33.9219 244.44 33.4062 243.867 32.7344C243.299 32.0625 242.849 31.2734 242.516 30.3672C242.188 31.3568 241.727 32.2188 241.133 32.9531C240.539 33.6823 239.82 34.2396 238.977 34.625L237.773 32.9688C238.576 32.6302 239.253 32.1276 239.805 31.4609C240.362 30.7891 240.779 30.0208 241.055 29.1562C241.331 28.2865 241.471 27.3802 241.477 26.4375V24.3125H243.492V26.4375ZM247.852 23.2188H249.867V37.4688H247.852V23.2188ZM259.867 25.6406H257.039C257.044 26.2188 257.164 26.776 257.398 27.3125C257.638 27.8438 258.005 28.3255 258.5 28.7578C258.995 29.1849 259.612 29.5156 260.352 29.75L259.336 31.2969C258.565 31.0469 257.904 30.6823 257.352 30.2031C256.805 29.7188 256.372 29.151 256.055 28.5C255.727 29.2135 255.273 29.8333 254.695 30.3594C254.122 30.8802 253.435 31.2708 252.633 31.5312L251.57 30C252.326 29.7552 252.961 29.4062 253.477 28.9531C253.992 28.5 254.375 27.987 254.625 27.4141C254.88 26.8411 255.013 26.25 255.023 25.6406H252.117V24.0469H259.867V25.6406ZM253.492 32.4062H263.07V37.4375H261.07V33.9844H253.492V32.4062ZM261.07 23.2188H263.07V26.6719H264.992V28.3281H263.07V31.7969H261.07V23.2188ZM276.836 28.7812H278.93V30.4219H276.836V37.4375H274.867V23.2188H276.836V28.7812ZM265.539 25.3438H268.758V23.4375H270.758V25.3438H273.898V26.9375H265.539V25.3438ZM266.117 31.125C266.117 30.474 266.273 29.8906 266.586 29.375C266.898 28.8594 267.331 28.4583 267.883 28.1719C268.44 27.8802 269.065 27.7344 269.758 27.7344C270.44 27.7344 271.057 27.8802 271.609 28.1719C272.161 28.4583 272.594 28.8594 272.906 29.375C273.224 29.8906 273.383 30.474 273.383 31.125C273.383 31.776 273.224 32.3594 272.906 32.875C272.594 33.3854 272.161 33.7865 271.609 34.0781C271.057 34.3698 270.44 34.5156 269.758 34.5156C269.065 34.5156 268.44 34.3698 267.883 34.0781C267.331 33.7865 266.898 33.3854 266.586 32.875C266.273 32.3594 266.117 31.776 266.117 31.125ZM268.023 31.125C268.023 31.4844 268.096 31.7969 268.242 32.0625C268.393 32.3281 268.599 32.5312 268.859 32.6719C269.12 32.8125 269.419 32.8802 269.758 32.875C270.091 32.8802 270.388 32.8125 270.648 32.6719C270.909 32.5312 271.112 32.3281 271.258 32.0625C271.404 31.7969 271.477 31.4844 271.477 31.125C271.477 30.7656 271.404 30.4531 271.258 30.1875C271.112 29.9219 270.909 29.7161 270.648 29.5703C270.388 29.4245 270.091 29.349 269.758 29.3438C269.419 29.349 269.12 29.4245 268.859 29.5703C268.599 29.7161 268.393 29.9219 268.242 30.1875C268.096 30.4531 268.023 30.7656 268.023 31.125ZM291.398 37.4375H289.383V23.2188H291.398V37.4375ZM279.492 33.4062C280.706 32.8333 281.706 32.1953 282.492 31.4922C283.284 30.7891 283.888 30.0104 284.305 29.1562C284.727 28.2969 284.992 27.3333 285.102 26.2656H280.258V24.7031H287.133C287.128 26.224 286.922 27.6068 286.516 28.8516C286.109 30.0964 285.419 31.2396 284.445 32.2812C283.477 33.3229 282.174 34.2292 280.539 35L279.492 33.4062Z" fill="#111111"/>
<defs>
<clipPath id="clip0_1633_178976">
<rect width="18.973" height="15.9999" fill="white" transform="translate(94.002 23)"/>
</clipPath>
</defs>
</svg>
