<svg width="24" height="24" viewBox="0 0 24 24" fill="none" xmlns="http://www.w3.org/2000/svg">
<path fill-rule="evenodd" clip-rule="evenodd" d="M14.706 4.12918C14.0553 4.92705 12.9626 5.52546 12.0909 5.52546C11.9927 5.52546 11.8945 5.513 11.8331 5.50053C11.8208 5.45066 11.7962 5.30106 11.7962 5.15146C11.7962 4.12918 12.2996 3.13183 12.8521 2.49602C13.5519 1.66074 14.7183 1.0374 15.6882 1C15.7127 1.1122 15.725 1.24934 15.725 1.38647C15.725 2.39629 15.2953 3.4061 14.706 4.12918ZM10.4361 20.2383C9.99862 20.4292 9.58399 20.61 9.02142 20.61C7.81824 20.61 6.98339 19.488 6.02576 18.1167C4.90852 16.496 4 13.9903 4 11.6216C4 7.80687 6.44318 5.7873 8.84954 5.7873C9.55188 5.7873 10.1936 6.0488 10.7643 6.28132C11.2211 6.46746 11.6323 6.63502 11.9925 6.63502C12.305 6.63502 12.6944 6.47876 13.1483 6.29664C13.7822 6.04226 14.5419 5.73743 15.3933 5.73743C15.9335 5.73743 17.9102 5.7873 19.2116 7.68221C19.2041 7.6881 19.1882 7.69876 19.165 7.7143C18.8448 7.92895 17.1367 9.07393 17.1367 11.4222C17.1367 14.3269 19.629 15.3616 19.715 15.3865C19.7128 15.3921 19.7077 15.4081 19.6996 15.4335C19.6176 15.691 19.2271 16.9184 18.389 18.1665C17.5664 19.3633 16.6947 20.585 15.3933 20.585C14.7519 20.585 14.3432 20.4013 13.9212 20.2115C13.4709 20.009 13.0054 19.7997 12.2258 19.7997C11.442 19.7997 10.9248 20.0252 10.4361 20.2383Z" fill="#30333A"/>
</svg>
