<svg width="16" height="17" viewBox="0 0 16 17" fill="none" xmlns="http://www.w3.org/2000/svg">
<g clip-path="url(#clip0_1633_179144)">
<path fill-rule="evenodd" clip-rule="evenodd" d="M7.99992 14.1663C11.1295 14.1663 13.6666 11.6293 13.6666 8.49967C13.6666 5.37006 11.1295 2.83301 7.99992 2.83301C4.87031 2.83301 2.33325 5.37006 2.33325 8.49967C2.33325 11.6293 4.87031 14.1663 7.99992 14.1663ZM7.99992 15.1663C11.6818 15.1663 14.6666 12.1816 14.6666 8.49967C14.6666 4.81778 11.6818 1.83301 7.99992 1.83301C4.31802 1.83301 1.33325 4.81778 1.33325 8.49967C1.33325 12.1816 4.31802 15.1663 7.99992 15.1663Z" fill="#555555"/>
<path fill-rule="evenodd" clip-rule="evenodd" d="M11.3363 6.46304C11.5406 6.64879 11.5556 6.96502 11.3699 7.16935L8.27171 10.5773C7.95165 10.9294 7.40228 10.9425 7.06584 10.606L4.9797 8.5199C4.78444 8.32464 4.78444 8.00805 4.9797 7.81279C5.17496 7.61753 5.49154 7.61753 5.68681 7.81279L7.64935 9.77533L10.6299 6.49667C10.8157 6.29235 11.1319 6.27729 11.3363 6.46304Z" fill="#555555"/>
</g>
<defs>
<clipPath id="clip0_1633_179144">
<rect width="16" height="16" fill="white" transform="translate(0 0.5)"/>
</clipPath>
</defs>
</svg>



