<svg width="16" height="17" viewBox="0 0 16 17" fill="none" xmlns="http://www.w3.org/2000/svg">
<g clip-path="url(#clip0_1633_179877)">
<path fill-rule="evenodd" clip-rule="evenodd" d="M7.99967 14.1666C11.1293 14.1666 13.6663 11.6295 13.6663 8.49992C13.6663 5.37031 11.1293 2.83325 7.99967 2.83325C4.87006 2.83325 2.33301 5.37031 2.33301 8.49992C2.33301 11.6295 4.87006 14.1666 7.99967 14.1666ZM7.99967 15.1666C11.6816 15.1666 14.6663 12.1818 14.6663 8.49992C14.6663 4.81802 11.6816 1.83325 7.99967 1.83325C4.31778 1.83325 1.33301 4.81802 1.33301 8.49992C1.33301 12.1818 4.31778 15.1666 7.99967 15.1666Z" fill="#2965FF"/>
<path fill-rule="evenodd" clip-rule="evenodd" d="M11.336 6.46329C11.5403 6.64904 11.5554 6.96526 11.3696 7.16959L8.27147 10.5776C7.95141 10.9296 7.40204 10.9427 7.06559 10.6063L4.97945 8.52014C4.78419 8.32488 4.78419 8.0083 4.97945 7.81304C5.17472 7.61777 5.4913 7.61777 5.68656 7.81304L7.6491 9.77558L10.6297 6.49692C10.8155 6.29259 11.1317 6.27753 11.336 6.46329Z" fill="#2965FF"/>
</g>
<defs>
<clipPath id="clip0_1633_179877">
<rect width="16" height="16" fill="white" transform="translate(0 0.5)"/>
</clipPath>
</defs>
</svg>
