<svg width="16" height="17" viewBox="0 0 16 17" fill="none" xmlns="http://www.w3.org/2000/svg">
<g clip-path="url(#clip0_2463_199637)">
<path fill-rule="evenodd" clip-rule="evenodd" d="M7.9987 14.1673C11.1283 14.1673 13.6654 11.6303 13.6654 8.50065C13.6654 5.37104 11.1283 2.83398 7.9987 2.83398C4.86908 2.83398 2.33203 5.37104 2.33203 8.50065C2.33203 11.6303 4.86908 14.1673 7.9987 14.1673ZM7.9987 15.1673C11.6806 15.1673 14.6654 12.1825 14.6654 8.50065C14.6654 4.81875 11.6806 1.83398 7.9987 1.83398C4.3168 1.83398 1.33203 4.81875 1.33203 8.50065C1.33203 12.1825 4.3168 15.1673 7.9987 15.1673Z" fill="#FF3F25"/>
<rect x="7.33203" y="4.5" width="1.33333" height="5.33333" rx="0.666667" fill="#FF3F25"/>
<rect x="7.33203" y="11.166" width="1.33333" height="1.33333" rx="0.666667" fill="#FF3F25"/>
</g>
<defs>
<clipPath id="clip0_2463_199637">
<rect width="16" height="16" fill="white" transform="translate(0 0.5)"/>
</clipPath>
</defs>
</svg>
