<svg width="16" height="17" viewBox="0 0 16 17" fill="none" xmlns="http://www.w3.org/2000/svg">
<g clip-path="url(#clip0_2463_199622)">
<path fill-rule="evenodd" clip-rule="evenodd" d="M7.9987 14.1673C11.1283 14.1673 13.6654 11.6303 13.6654 8.50065C13.6654 5.37104 11.1283 2.83398 7.9987 2.83398C4.86908 2.83398 2.33203 5.37104 2.33203 8.50065C2.33203 11.6303 4.86908 14.1673 7.9987 14.1673ZM7.9987 15.1673C11.6806 15.1673 14.6654 12.1825 14.6654 8.50065C14.6654 4.81875 11.6806 1.83398 7.9987 1.83398C4.3168 1.83398 1.33203 4.81875 1.33203 8.50065C1.33203 12.1825 4.3168 15.1673 7.9987 15.1673Z" fill="#2965FF"/>
<path fill-rule="evenodd" clip-rule="evenodd" d="M11.335 6.46402C11.5394 6.64977 11.5544 6.966 11.3687 7.17032L8.27049 10.5783C7.95043 10.9304 7.40106 10.9435 7.06462 10.607L4.97848 8.52087C4.78322 8.32561 4.78322 8.00903 4.97848 7.81377C5.17374 7.61851 5.49032 7.61851 5.68558 7.81377L7.64813 9.77631L10.6287 6.49765C10.8145 6.29332 11.1307 6.27826 11.335 6.46402Z" fill="#2965FF"/>
</g>
<defs>
<clipPath id="clip0_2463_199622">
<rect width="16" height="16" fill="white" transform="translate(0 0.5)"/>
</clipPath>
</defs>
</svg>
