<svg width="16" height="16" viewBox="0 0 16 16" fill="none" xmlns="http://www.w3.org/2000/svg">
<rect width="16" height="16" rx="8" fill="#2965FF" fill-opacity="0.1"/>
<path d="M7.28355 5.00329L7.28351 5.00324L7.28107 5.00568C7.14166 5.14509 7.14166 5.37451 7.28107 5.51392L9.53736 7.7702C9.66441 7.89726 9.66441 8.10387 9.53736 8.23092L7.28107 10.4872C7.14166 10.6266 7.14166 10.856 7.28107 10.9954C7.42048 11.1349 7.6499 11.1349 7.78931 10.9954L10.0456 8.73916C10.4515 8.33329 10.4515 7.66784 10.0456 7.26196L7.78931 5.00568C7.71766 4.93403 7.62603 4.90026 7.53519 4.90026C7.44141 4.90026 7.3519 4.93949 7.28355 5.00329Z" fill="#2965FF" stroke="#2965FF" stroke-width="0.2"/>
</svg>
