<svg width="36" height="36" viewBox="0 0 36 36" fill="none" xmlns="http://www.w3.org/2000/svg">
<path d="M12.4032 30H5.62903C5.3296 30 5.04242 29.881 4.83069 29.6693C4.61896 29.4576 4.50001 29.1704 4.50001 28.871V22.5625C4.49949 22.4159 4.5279 22.2707 4.5836 22.135C4.6393 21.9994 4.72119 21.8761 4.8246 21.7722L21.76 4.83682C21.8651 4.73014 21.9903 4.64543 22.1284 4.5876C22.2665 4.52978 22.4147 4.5 22.5644 4.5C22.7142 4.5 22.8624 4.52978 23.0005 4.5876C23.1386 4.64543 23.2638 4.73014 23.3689 4.83682L29.6632 11.1311C29.7699 11.2362 29.8546 11.3614 29.9124 11.4995C29.9702 11.6376 30 11.7859 30 11.9356C30 12.0853 29.9702 12.2335 29.9124 12.3716C29.8546 12.5097 29.7699 12.6349 29.6632 12.74L12.4032 30Z" stroke="#2965FF" stroke-width="2" stroke-linecap="round" stroke-linejoin="round"/>
<path d="M29.3386 30H12.4032" stroke="#2965FF" stroke-width="2" stroke-linecap="round" stroke-linejoin="round"/>
<path d="M18.0483 8.54883L25.9515 16.452" stroke="#2965FF" stroke-width="2" stroke-linecap="round" stroke-linejoin="round"/>
</svg>
