<svg width="100%" height="100%" viewBox="0 0 25 24" fill="none" xmlns="http://www.w3.org/2000/svg">
<path d="M24.0444 12.27C24.0444 11.48 23.9751 10.73 23.8563 10H12.6719V14.51H19.0757C18.7887 15.99 17.9474 17.24 16.7003 18.0899V21.0899H20.5208C22.7577 18.9999 24.0444 15.92 24.0444 12.27Z" fill="#4285F4"/>
<path d="M12.6708 24C15.8777 24 18.56 22.92 20.5197 21.09L16.6992 18.09C15.6302 18.81 14.2743 19.25 12.6708 19.25C9.57282 19.25 6.94991 17.14 6.00962 14.29H2.07031V17.38C4.02017 21.3 8.02877 24 12.6708 24Z" fill="#34A853"/>
<path d="M6.00909 14.2901C5.76165 13.5701 5.63297 12.8001 5.63297 12.0001C5.63297 11.2001 5.77154 10.4301 6.00909 9.7101V6.62012H2.06978C1.25816 8.24011 0.792969 10.0601 0.792969 12.0001C0.792969 13.9401 1.25816 15.7601 2.06978 17.38L6.00909 14.2901Z" fill="#FBBC05"/>
<path d="M12.6708 4.74997C14.4227 4.74997 15.9866 5.35996 17.2238 6.54996L20.6088 3.12998C18.56 1.18999 15.8777 0 12.6708 0C8.02877 0 4.02017 2.69998 2.07031 6.61996L6.00962 9.70994C6.94991 6.85995 9.57282 4.74997 12.6708 4.74997Z" fill="#EA4335"/>
</svg>
