<svg width="25" height="22" viewBox="0 0 25 22" fill="none" xmlns="http://www.w3.org/2000/svg">
<path d="M11.1343 21.2893L11.1319 21.2872C10.1796 20.4721 9.30982 19.7383 8.52267 19.0859C8.22236 18.8317 7.92711 18.5832 7.63753 18.3394C5.64537 16.6625 3.9218 15.2116 2.66841 13.7313C0.991003 11.7176 0.1875 9.84394 0.1875 7.74074C0.1875 5.7072 0.916673 3.79817 2.20685 2.40916C3.53645 0.981526 5.39028 0.1875 7.36755 0.1875C8.85761 0.1875 10.2668 0.662721 11.4765 1.57559L11.4765 1.5756L11.478 1.57677C11.8024 1.81622 12.0814 2.05205 12.3599 2.36531L12.4909 2.51276L12.6315 2.37437C12.9228 2.08769 13.2033 1.81203 13.522 1.57677L13.522 1.57678L13.5235 1.57559C14.7337 0.662363 16.1016 0.1875 17.6325 0.1875C19.6506 0.1875 21.4633 0.981153 22.7932 2.40927L22.7932 2.40928L22.7951 2.41118C24.1232 3.79767 24.8125 5.70462 24.8125 7.74074C24.8125 9.84577 24.0489 11.7189 22.3325 13.7301L22.3321 13.7307C20.9061 15.415 18.8694 17.1031 16.5258 19.0457L16.478 19.0853C16.2049 19.3117 15.9176 19.5521 15.6192 19.8018C15.0556 20.2736 14.4525 20.7783 13.8304 21.2842L13.8235 21.2898L13.8171 21.296C13.4829 21.625 12.9936 21.8125 12.5 21.8125C12.0083 21.8125 11.5143 21.6259 11.1343 21.2893ZM3.25992 3.37268L3.25981 3.37258L3.25488 3.37804C2.22664 4.51664 1.67508 6.07059 1.67508 7.74074C1.67508 9.46697 2.36149 11.0971 3.78873 12.7912L3.78872 12.7912L3.78994 12.7926C5.16344 14.3903 7.15527 16.0657 9.41842 17.9693L9.44056 17.9879L9.4416 17.9888C10.2268 18.6397 11.1365 19.4129 12.0883 20.2276L12.088 20.228L12.0989 20.236C12.3307 20.4071 12.6693 20.4071 12.9011 20.236L12.9014 20.2364L12.9117 20.2276C13.3139 19.8833 13.7119 19.551 14.0971 19.2294C14.6155 18.7966 15.1105 18.3833 15.5612 17.9865C15.7554 17.8226 15.9475 17.6609 16.1372 17.5012C18.2035 15.7615 19.9865 14.2603 21.2116 12.7908C22.6386 11.0969 23.3249 9.46686 23.3249 7.74074C23.3249 6.0678 22.7302 4.51324 21.7013 3.41618L21.7011 3.41597C20.6314 2.27876 19.1748 1.64583 17.6325 1.64583C16.4718 1.64583 15.3995 2.02715 14.4604 2.69939L14.4603 2.69931L14.4556 2.70297C14.0708 2.9975 13.7312 3.33233 13.3956 3.70396L13.3956 3.70394L13.3934 3.7065C13.175 3.95725 12.8517 4.13102 12.5 4.13102C12.1458 4.13102 11.8639 3.99583 11.6054 3.70505L11.6044 3.70396C11.2688 3.33233 10.9292 2.9975 10.5444 2.70297L10.5444 2.70296L10.543 2.70185C9.6422 2.02633 8.56817 1.64583 7.36755 1.64583C5.78493 1.64583 4.32949 2.27779 3.25992 3.37268Z" fill="#D9D9D9" stroke="#D9D9D9" stroke-width="0.375"/>
</svg>
