<svg width="24" height="24" viewBox="0 0 24 24" fill="none" xmlns="http://www.w3.org/2000/svg">
<path d="M12 22.125C11.5125 22.125 11.025 21.9375 10.65 21.6C9.78749 20.85 8.99999 20.175 8.28749 19.575C6.14999 17.7375 4.27499 16.2 2.96249 14.625C1.42499 12.75 0.674988 10.9875 0.674988 9C0.674988 7.0875 1.34999 5.2875 2.54999 3.975C3.78749 2.625 5.51249 1.875 7.34999 1.875C8.73749 1.875 10.05 2.325 11.175 3.1875C11.475 3.4125 11.7375 3.6375 12 3.9375C12.2625 3.675 12.525 3.4125 12.825 3.1875C13.95 2.325 15.225 1.875 16.65 1.875C18.525 1.875 20.2125 2.625 21.45 3.975C22.6875 5.2875 23.325 7.0875 23.325 9C23.325 10.9875 22.6125 12.75 21.0375 14.625C19.725 16.2 17.85 17.775 15.7125 19.575C15 20.175 14.175 20.8875 13.3125 21.6C12.975 21.9375 12.4875 22.125 12 22.125Z" fill="#FF3F25"/>
</svg>
