<svg width="25" height="22" viewBox="0 0 25 22" fill="none" xmlns="http://www.w3.org/2000/svg">
<path d="M11.1343 21.2893L11.1319 21.2872C10.1796 20.4721 9.30982 19.7383 8.52267 19.0859C8.22236 18.8317 7.92711 18.5832 7.63753 18.3394C5.64537 16.6625 3.9218 15.2116 2.66841 13.7313C0.991003 11.7176 0.1875 9.84394 0.1875 7.74074C0.1875 5.7072 0.916673 3.79817 2.20685 2.40916C3.53645 0.981526 5.39028 0.1875 7.36755 0.1875C8.85761 0.1875 10.2668 0.662721 11.4765 1.57559L11.4765 1.5756L11.478 1.57677C11.8024 1.81622 12.0814 2.05205 12.3599 2.36531L12.4909 2.51276L12.6315 2.37437C12.9228 2.08769 13.2033 1.81203 13.522 1.57677L13.522 1.57678L13.5235 1.57559C14.7337 0.662363 16.1016 0.1875 17.6325 0.1875C19.6506 0.1875 21.4633 0.981153 22.7932 2.40927L22.7932 2.40928L22.7951 2.41118C24.1232 3.79767 24.8125 5.70462 24.8125 7.74074C24.8125 9.84577 24.0489 11.7189 22.3325 13.7301L22.3321 13.7307C20.9084 15.4123 18.8757 17.0979 16.5365 19.0368L16.478 19.0853C16.2049 19.3117 15.9176 19.5521 15.6192 19.8018C15.0556 20.2736 14.4525 20.7783 13.8304 21.2842L13.8235 21.2898L13.8171 21.296C13.4829 21.625 12.9936 21.8125 12.5 21.8125C12.0083 21.8125 11.5143 21.6259 11.1343 21.2893Z" fill="#FF3F25" stroke="#FF3F25" stroke-width="0.375"/>
</svg>
