<svg width="20" height="20" viewBox="0 0 20 20" fill="none" xmlns="http://www.w3.org/2000/svg">
<g clip-path="url(#clip0_1633_179386)">
<path fill-rule="evenodd" clip-rule="evenodd" d="M10 17.0837C13.912 17.0837 17.0834 13.9123 17.0834 10.0003C17.0834 6.08831 13.912 2.91699 10 2.91699C6.088 2.91699 2.91669 6.08831 2.91669 10.0003C2.91669 13.9123 6.088 17.0837 10 17.0837ZM10 18.3337C14.6024 18.3337 18.3334 14.6027 18.3334 10.0003C18.3334 5.39795 14.6024 1.66699 10 1.66699C5.39765 1.66699 1.66669 5.39795 1.66669 10.0003C1.66669 14.6027 5.39765 18.3337 10 18.3337Z" fill="#9F9F9F"/>
<path fill-rule="evenodd" clip-rule="evenodd" d="M8.99528 6.84717C8.78471 7.02584 8.62498 7.30063 8.62498 7.72826C8.62498 8.11946 8.30785 8.4366 7.91665 8.4366C7.52544 8.4366 7.20831 8.11946 7.20831 7.72826C7.20831 6.8926 7.54487 6.21993 8.07873 5.76695C8.59719 5.32704 9.26324 5.125 9.9018 5.125C10.5404 5.125 11.2064 5.32705 11.7249 5.76696C12.2587 6.21993 12.5953 6.8926 12.5953 7.72826C12.5953 8.73079 11.9288 9.52133 11.4258 9.989C11.1634 10.233 10.9038 10.4275 10.7083 10.5622L10.7083 11.6667C10.7083 12.0579 10.3912 12.375 9.99995 12.375C9.60875 12.375 9.29162 12.0579 9.29162 11.6667L9.29165 10.1753C9.29165 9.92002 9.42902 9.68381 9.65113 9.55812C9.6513 9.55803 9.65169 9.5578 9.65229 9.55746L9.66229 9.55163C9.67218 9.54582 9.68829 9.53623 9.70973 9.52303C9.75271 9.49657 9.81659 9.45596 9.89435 9.40265C10.0512 9.29513 10.2577 9.14068 10.4611 8.95152C10.9017 8.5419 11.1786 8.10928 11.1786 7.72826C11.1786 7.30064 11.0189 7.02585 10.8083 6.84718C10.5823 6.65544 10.2558 6.54167 9.9018 6.54167C9.54779 6.54167 9.22126 6.65544 8.99528 6.84717Z" fill="#9F9F9F"/>
<rect x="9.16669" y="13.333" width="1.66667" height="1.66667" rx="0.833333" fill="#9F9F9F"/>
</g>
<defs>
<clipPath id="clip0_1633_179386">
<rect width="20" height="20" fill="white"/>
</clipPath>
</defs>
</svg>


