<svg width="20" height="20" viewBox="0 0 20 20" fill="none" xmlns="http://www.w3.org/2000/svg">
<path d="M2.67925 16.0219L1.9721 15.772H1.9721L2.67925 16.0219ZM3.82769 17.1703L4.07756 17.8775H4.07756L3.82769 17.1703ZM5.71964 16.5018L5.46976 15.7947L5.71964 16.5018ZM6.36863 16.5638L6.00496 17.2198L6.36863 16.5638ZM3.32577 13.4247L3.99277 13.0817L3.32577 13.4247ZM3.37547 14.0516L2.66832 13.8018L3.37547 14.0516ZM3.25 10C3.25 6.27208 6.27208 3.25 10 3.25V1.75C5.44365 1.75 1.75 5.44365 1.75 10H3.25ZM3.99277 13.0817C3.5182 12.1587 3.25 11.1118 3.25 10H1.75C1.75 11.3559 2.07766 12.6374 2.65877 13.7676L3.99277 13.0817ZM3.3864 16.2718L4.08262 14.3015L2.66832 13.8018L1.9721 15.772L3.3864 16.2718ZM3.57781 16.4632C3.45892 16.5052 3.34439 16.3907 3.3864 16.2718L1.9721 15.772C1.50998 17.0798 2.76975 18.3396 4.07756 17.8775L3.57781 16.4632ZM5.46976 15.7947L3.57781 16.4632L4.07756 17.8775L5.96952 17.209L5.46976 15.7947ZM10 16.75C8.81307 16.75 7.69979 16.4443 6.73229 15.9079L6.00496 17.2198C7.18932 17.8764 8.55216 18.25 10 18.25V16.75ZM16.75 10C16.75 13.7279 13.7279 16.75 10 16.75V18.25C14.5563 18.25 18.25 14.5563 18.25 10H16.75ZM10 3.25C13.7279 3.25 16.75 6.27208 16.75 10H18.25C18.25 5.44365 14.5563 1.75 10 1.75V3.25ZM5.96952 17.209C5.96734 17.2097 5.96838 17.2087 5.97445 17.2093C5.9811 17.21 5.99204 17.2126 6.00496 17.2198L6.73229 15.9079C6.36293 15.7031 5.90425 15.6411 5.46976 15.7947L5.96952 17.209ZM2.65877 13.7676C2.66526 13.7802 2.66753 13.7907 2.66807 13.797C2.66856 13.8029 2.66757 13.8039 2.66832 13.8018L4.08262 14.3015C4.23023 13.8838 4.17856 13.4431 3.99277 13.0817L2.65877 13.7676Z" fill="#9F9F9F"/>
<circle cx="6.28906" cy="10.0371" r="0.9375" fill="#9F9F9F"/>
<circle cx="10.0391" cy="10.0371" r="0.9375" fill="#9F9F9F"/>
<circle cx="13.7891" cy="10.0371" r="0.9375" fill="#9F9F9F"/>
</svg>
