<svg width="24" height="24" viewBox="0 0 24 24" fill="none" xmlns="http://www.w3.org/2000/svg">
<circle opacity="0.1" cx="12" cy="12" r="12" fill="#2965FF"/>
<path d="M7.77734 5.46875H12.9544C13.9327 5.46875 14.7773 5.65712 15.4883 6.03385C16.1992 6.41059 16.74 6.9362 17.1107 7.61068C17.4874 8.27908 17.6758 9.04774 17.6758 9.91667C17.6758 10.7977 17.4844 11.5755 17.1016 12.25C16.7248 12.9184 16.1749 13.4379 15.4518 13.8086C14.7348 14.1793 13.878 14.3646 12.8815 14.3646H10.5117V18.6667H7.77734V5.46875ZM12.444 12.1589C13.2339 12.1589 13.8325 11.9583 14.2396 11.5573C14.6528 11.1502 14.8563 10.6033 14.8503 9.91667C14.8563 9.24219 14.6528 8.70747 14.2396 8.3125C13.8325 7.91753 13.2339 7.71701 12.444 7.71094H10.5117V12.1589H12.444Z" fill="#2965FF"/>
</svg>
