<svg width="21" height="20" viewBox="0 0 21 20" fill="none" xmlns="http://www.w3.org/2000/svg">
<g clip-path="url(#clip0_2463_195675)">
<path d="M10.4974 18.3346C15.0998 18.3346 18.8307 14.6037 18.8307 10.0013C18.8307 5.39893 15.0998 1.66797 10.4974 1.66797C5.89502 1.66797 2.16406 5.39893 2.16406 10.0013C2.16406 14.6037 5.89502 18.3346 10.4974 18.3346Z" fill="#FF3F25" fill-opacity="0.1"/>
<path fill-rule="evenodd" clip-rule="evenodd" d="M9.49791 6.84717C9.28734 7.02584 9.1276 7.30063 9.1276 7.72826C9.1276 8.11946 8.81047 8.4366 8.41927 8.4366C8.02807 8.4366 7.71094 8.11946 7.71094 7.72826C7.71094 6.8926 8.04749 6.21993 8.58136 5.76695C9.09982 5.32704 9.76586 5.125 10.4044 5.125C11.043 5.125 11.709 5.32705 12.2275 5.76696C12.7614 6.21993 13.0979 6.8926 13.0979 7.72826C13.0979 8.73079 12.4314 9.52133 11.9284 9.989C11.666 10.233 11.4065 10.4275 11.2109 10.5622L11.2109 11.6667C11.2109 12.0579 10.8938 12.375 10.5026 12.375C10.1114 12.375 9.79425 12.0579 9.79425 11.6667L9.79427 10.1753C9.79428 9.92002 9.93164 9.68381 10.1537 9.55812C10.1539 9.55803 10.1543 9.5578 10.1549 9.55746L10.1649 9.55163C10.1748 9.54582 10.1909 9.53623 10.2124 9.52303C10.2553 9.49657 10.3192 9.45596 10.397 9.40265C10.5538 9.29513 10.7603 9.14068 10.9638 8.95152C11.4043 8.5419 11.6813 8.10928 11.6813 7.72826C11.6813 7.30064 11.5215 7.02585 11.3109 6.84718C11.085 6.65544 10.7584 6.54167 10.4044 6.54167C10.0504 6.54167 9.72388 6.65544 9.49791 6.84717Z" fill="#FF3F25"/>
<rect x="9.66406" y="13.332" width="1.66667" height="1.66667" rx="0.833333" fill="#FF3F25"/>
</g>
<defs>
<clipPath id="clip0_2463_195675">
<rect width="20" height="20" fill="white" transform="translate(0.5)"/>
</clipPath>
</defs>
</svg>
