<svg width="16" height="17" viewBox="0 0 16 17" fill="none" xmlns="http://www.w3.org/2000/svg">
<g clip-path="url(#clip0_1633_179685)">
<path fill-rule="evenodd" clip-rule="evenodd" d="M7.99992 14.1666C11.1295 14.1666 13.6666 11.6295 13.6666 8.49992C13.6666 5.37031 11.1295 2.83325 7.99992 2.83325C4.87031 2.83325 2.33325 5.37031 2.33325 8.49992C2.33325 11.6295 4.87031 14.1666 7.99992 14.1666ZM7.99992 15.1666C11.6818 15.1666 14.6666 12.1818 14.6666 8.49992C14.6666 4.81802 11.6818 1.83325 7.99992 1.83325C4.31802 1.83325 1.33325 4.81802 1.33325 8.49992C1.33325 12.1818 4.31802 15.1666 7.99992 15.1666Z" fill="#FF3F25"/>
<rect x="7.33325" y="4.5" width="1.33333" height="5.33333" rx="0.666667" fill="#FF3F25"/>
<rect x="7.33325" y="11.1667" width="1.33333" height="1.33333" rx="0.666667" fill="#FF3F25"/>
</g>
<defs>
<clipPath id="clip0_1633_179685">
<rect width="16" height="16" fill="white" transform="translate(0 0.5)"/>
</clipPath>
</defs>
</svg>
