<svg width="28" height="28" viewBox="0 0 28 28" fill="none" xmlns="http://www.w3.org/2000/svg">
<path d="M23.8995 3.5H19.2422L19.8255 9.33333C19.8255 9.33333 20.9922 10.5 22.7422 10.5C23.6608 10.5012 24.5483 10.1668 25.2377 9.55967C25.3106 9.49156 25.3649 9.40601 25.3955 9.31109C25.4261 9.21617 25.432 9.11501 25.4127 9.01717L24.589 4.08333C24.5615 3.92034 24.4771 3.77236 24.3509 3.66559C24.2247 3.55883 24.0648 3.50017 23.8995 3.5V3.5Z" stroke="#111111" stroke-width="1.8"/>
<path d="M19.2422 3.5L19.8255 9.33333C19.8255 9.33333 18.6589 10.5 16.9089 10.5C15.1589 10.5 13.9922 9.33333 13.9922 9.33333V3.5H19.2422Z" stroke="#111111" stroke-width="1.8"/>
<path d="M13.9896 3.5V9.33333C13.9896 9.33333 12.8229 10.5 11.0729 10.5C9.32292 10.5 8.15625 9.33333 8.15625 9.33333L8.73958 3.5H13.9896Z" stroke="#111111" stroke-width="1.8"/>
<path d="M8.73896 3.5H4.08279C3.91712 3.49994 3.75679 3.55864 3.63033 3.66566C3.50387 3.77269 3.41946 3.9211 3.39212 4.0845L2.56962 9.01833C2.5504 9.11618 2.55638 9.21731 2.58699 9.31221C2.6176 9.40711 2.67185 9.49267 2.74462 9.56083C3.12729 9.89917 3.98246 10.5012 5.23896 10.5012C6.98896 10.5012 8.15562 9.3345 8.15562 9.3345L8.73896 3.50117V3.5Z" stroke="#111111" stroke-width="1.8"/>
<path d="M3.5 10.5V22.1667C3.5 22.7855 3.74583 23.379 4.18342 23.8166C4.621 24.2542 5.21449 24.5 5.83333 24.5H22.1667C22.7855 24.5 23.379 24.2542 23.8166 23.8166C24.2542 23.379 24.5 22.7855 24.5 22.1667V10.5" stroke="#111111" stroke-width="1.8"/>
<path d="M17.3047 24.5003V17.5003C17.3047 16.8815 17.0589 16.288 16.6213 15.8504C16.1837 15.4128 15.5902 15.167 14.9714 15.167H12.638C12.0192 15.167 11.4257 15.4128 10.9881 15.8504C10.5505 16.288 10.3047 16.8815 10.3047 17.5003V24.5003" stroke="#111111" stroke-width="1.8" stroke-miterlimit="16"/>
</svg>
