<svg width="28" height="28" viewBox="0 0 28 28" fill="none" xmlns="http://www.w3.org/2000/svg">
<path opacity="0.1" d="M6.58984 22.7654V9.97083C6.58984 9.46711 6.75446 8.97598 7.05627 8.5604L10.8014 3.4476C11.3913 2.62905 12.8591 2.04977 14.1075 2.47793C15.4519 2.89351 16.3436 4.27875 16.0555 5.51287L15.3421 9.63082C15.2873 10.0086 15.397 10.3486 15.6302 10.6131C15.8634 10.8524 16.2064 11.0035 16.5768 11.0035H22.215C23.2988 11.0035 24.2316 11.4064 24.7804 12.1117C25.3017 12.7917 25.3977 13.6732 25.0547 14.5673L21.68 23.9996C21.2548 25.5611 19.4028 26.833 17.5645 26.833H12.2144C11.2952 26.833 10.0057 26.5434 9.41582 26.0019L7.65987 24.7551C6.98768 24.2892 6.58984 23.5462 6.58984 22.7654Z" fill="#FF3F25"/>
<path d="M5.57204 8.86719H4.31307C2.41849 8.86719 1.64844 9.55636 1.64844 11.2563V22.8114C1.64844 24.5113 2.41849 25.2005 4.31307 25.2005H5.57204C7.46662 25.2005 8.23667 24.5113 8.23667 22.8114V11.2563C8.23667 9.55636 7.46662 8.86719 5.57204 8.86719Z" fill="#FF3F25"/>
</svg>
