<svg width="28" height="28" viewBox="0 0 28 28" fill="none" xmlns="http://www.w3.org/2000/svg">
<path opacity="0.15" d="M21.4102 5.23457L21.4102 18.0292C21.4102 18.5329 21.2455 19.024 20.9437 19.4396L17.1986 24.5524C16.6087 25.371 15.1409 25.9502 13.8925 25.5221C12.5481 25.1065 11.6564 23.7213 11.9445 22.4871L12.6579 18.3692C12.7127 17.9914 12.603 17.6514 12.3698 17.3869C12.1366 17.1476 11.7936 16.9965 11.4232 16.9965H5.78496C4.70121 16.9965 3.76837 16.5936 3.21964 15.8883C2.69834 15.2083 2.60231 14.3268 2.94527 13.4327L6.31998 4.00044C6.74525 2.4389 8.59723 1.16699 10.4355 1.16699H15.7856C16.7048 1.16699 17.9943 1.45663 18.5842 1.99814L20.3401 3.24486C21.0123 3.7108 21.4102 4.45379 21.4102 5.23457Z" fill="#555555"/>
<path d="M22.428 19.1328H23.6869C25.5815 19.1328 26.3516 18.4436 26.3516 16.7437V5.1886C26.3516 3.48865 25.5815 2.79948 23.6869 2.79948H22.428C20.5334 2.79948 19.7633 3.48865 19.7633 5.1886V16.7437C19.7633 18.4436 20.5334 19.1328 22.428 19.1328Z" fill="#9F9F9F"/>
</svg>
