<svg width="20" height="20" viewBox="0 0 20 20" fill="none" xmlns="http://www.w3.org/2000/svg">
<path d="M6.89066 16.6667H3.12724C2.96089 16.6667 2.80135 16.6006 2.68372 16.4829C2.56609 16.3653 2.5 16.2058 2.5 16.0394V12.5347C2.49972 12.4533 2.5155 12.3726 2.54644 12.2972C2.57739 12.2219 2.62288 12.1534 2.68033 12.0957L12.0889 2.68712C12.1473 2.62786 12.2168 2.58079 12.2935 2.54867C12.3703 2.51654 12.4526 2.5 12.5358 2.5C12.619 2.5 12.7013 2.51654 12.778 2.54867C12.8548 2.58079 12.9243 2.62786 12.9827 2.68712L16.4795 6.18397C16.5388 6.24233 16.5859 6.3119 16.618 6.38862C16.6501 6.46535 16.6667 6.5477 16.6667 6.63087C16.6667 6.71405 16.6501 6.7964 16.618 6.87312C16.5859 6.94985 16.5388 7.01942 16.4795 7.07778L6.89066 16.6667Z" stroke="white" stroke-width="1.5" stroke-linecap="round" stroke-linejoin="round"/>
<path d="M16.2992 16.667H6.89062" stroke="white" stroke-width="1.5" stroke-linecap="round" stroke-linejoin="round"/>
<path d="M10.0273 4.74902L14.418 9.13968" stroke="white" stroke-width="1.5" stroke-linecap="round" stroke-linejoin="round"/>
</svg>
