<svg width="20" height="20" viewBox="0 0 20 20" fill="none" xmlns="http://www.w3.org/2000/svg">
<path d="M20 10C20 15.5228 15.5228 20 10 20C4.47715 20 0 15.5228 0 10C0 4.47715 4.47715 0 10 0C15.5228 0 20 4.47715 20 10Z" fill="#F8FAFF"/>
<path d="M10 5.125V6.25" stroke="#2965FF" stroke-width="1.2" stroke-linecap="round" stroke-linejoin="round"/>
<path d="M10 13.75V14.875" stroke="#2965FF" stroke-width="1.2" stroke-linecap="round" stroke-linejoin="round"/>
<path d="M12.625 8.125C12.625 7.87877 12.5765 7.63495 12.4823 7.40747C12.388 7.17998 12.2499 6.97328 12.0758 6.79917C11.9017 6.62506 11.695 6.48695 11.4675 6.39273C11.24 6.2985 10.9962 6.25 10.75 6.25H9.0625C8.56522 6.25 8.08831 6.44754 7.73667 6.79917C7.38504 7.15081 7.1875 7.62772 7.1875 8.125C7.1875 8.62228 7.38504 9.09919 7.73667 9.45083C8.08831 9.80246 8.56522 10 9.0625 10H11.125C11.6223 10 12.0992 10.1975 12.4508 10.5492C12.8025 10.9008 13 11.3777 13 11.875C13 12.3723 12.8025 12.8492 12.4508 13.2008C12.0992 13.5525 11.6223 13.75 11.125 13.75H8.875C8.37772 13.75 7.90081 13.5525 7.54917 13.2008C7.19754 12.8492 7 12.3723 7 11.875" stroke="#2965FF" stroke-width="1.2" stroke-linecap="round" stroke-linejoin="round"/>
</svg>
