<svg width="124" height="32" viewBox="0 0 124 32" fill="none" xmlns="http://www.w3.org/2000/svg">
<path d="M18.1691 4V27H20.7881V4H18.1691ZM11.2115 12.5913H3.59256V4.6733H1V25.6265H13.8041V4.6733H11.2115V12.5913ZM3.59256 23.1756V15.0422H11.2115V23.1756H3.59256Z" fill="#2965FF"/>
<path d="M43.5369 4V8.68618H39.0131V4.40398H36.447V7.58197H28.3783V4.40398H25.8122V15.5H39.0131V11.1909H43.5369V16.1733H46.1559V4H43.5369ZM28.3783 13.3185V9.7096H36.447V13.3185H28.3783ZM43.5633 19.7283H29.5159V17.4391H26.9233V26.7037H46.1559V17.4391H43.5633V19.7283ZM29.5159 24.5492V21.856H43.5633V24.5492H29.5159Z" fill="#2965FF"/>
<path d="M68.7195 4V13.3454H63.1376C63.2698 12.4028 63.3227 11.4063 63.3227 10.3829V4.8349H51.0213V7.28572H60.6508V10.4368C60.6508 18.1393 57.1588 23.0141 51.0213 23.041V25.5726C57.0265 25.5726 61.1799 21.856 62.6878 15.8501H68.7195V27H71.3385V4H68.7195Z" fill="#2965FF"/>
<path d="M94.4841 4V13.2646H90.8069V4.13466H88.3202V26.596H90.8069V15.7424H94.4841V27H96.9708V4H94.4841ZM78.3996 23.2564V16.2272H85.0927V4.8349H75.9394V7.20492H82.6059V13.8571H75.9394V25.6265H80.0927C82.8969 25.6265 85.1985 25.2763 86.68 24.603V22.1522C85.0133 22.9063 82.8705 23.2564 80.1457 23.2564H78.3996Z" fill="#2965FF"/>
<path d="M111.439 11.5679L121.069 18.1663L122.497 16.0386L112.603 9.44028C113.291 7.95902 113.82 6.31616 114.138 4.59251L111.439 4.10773C110.275 10.4637 105.778 15.5539 100.884 15.5539V18.0855C105.064 18.0855 108.9 15.5269 111.439 11.5679ZM113.027 23.3911V16.9543H110.355V23.3911H100.434V25.8958H123V23.3911H113.027Z" fill="#2965FF"/>
</svg>
