<svg width="114" height="20" viewBox="0 0 114 20" fill="none" xmlns="http://www.w3.org/2000/svg">
<path d="M15.9988 0V20H18.4393V0H15.9988ZM9.51548 7.47073H2.41585V0.585481H0V18.8056H11.9313V0.585481H9.51548V7.47073ZM2.41585 16.6745V9.60188H9.51548V16.6745H2.41585Z" fill="#2965FF"/>
<path d="M39.6375 0V4.07494H35.4221V0.351289H33.0309V3.11475H25.5122V0.351289H23.121V10H35.4221V6.25293H39.6375V10.5855H42.078V0H39.6375ZM25.5122 8.10305V4.96487H33.0309V8.10305H25.5122ZM39.6621 13.6768H26.5722V11.6862H24.1563V19.7424H42.078V11.6862H39.6621V13.6768ZM26.5722 17.8689V15.5269H39.6621V17.8689H26.5722Z" fill="#2965FF"/>
<path d="M63.1036 0V8.12646H57.9021C58.0254 7.30679 58.0747 6.44028 58.0747 5.55035V0.725996H46.6117V2.85714H55.5849V5.59719C55.5849 12.2951 52.3309 16.534 46.6117 16.5574V18.7588C52.2076 18.7588 56.0779 15.5269 57.4831 10.3045H63.1036V20H65.5441V0H63.1036Z" fill="#2965FF"/>
<path d="M87.112 0V8.05621H83.6855V0.117096H81.3682V19.6487H83.6855V10.2108H87.112V20H89.4293V0H87.112ZM72.1239 16.7447V10.6323H78.3607V0.725996H69.8313V2.78689H76.0435V8.57143H69.8313V18.8056H73.7016C76.3147 18.8056 78.4593 18.5012 79.8398 17.9157V15.7845C78.2868 16.4403 76.29 16.7447 73.7509 16.7447H72.1239Z" fill="#2965FF"/>
<path d="M102.912 6.5808L111.885 12.3185L113.216 10.4684L103.996 4.73068C104.637 3.44262 105.13 2.01405 105.426 0.515223L102.912 0.0936769C101.827 5.62061 97.6361 10.0468 93.0756 10.0468V12.2482C96.9705 12.2482 100.545 10.0234 102.912 6.5808ZM104.391 16.8618V11.2646H101.901V16.8618H92.6565V19.0398H113.684V16.8618H104.391Z" fill="#2965FF"/>
</svg>
